<?xml version="1.0" encoding="UTF-8"?>
<svg width="189px" height="192px" viewBox="0 0 189 192" version="1.1" xmlns="http://www.w3.org/2000/svg" xmlns:xlink="http://www.w3.org/1999/xlink">
    <!-- Generator: Sketch 46.2 (44496) - http://www.bohemiancoding.com/sketch -->
    <title>Group Copy</title>
    <desc>Created with Sketch.</desc>
    <defs></defs>
    <g id="Page-1" stroke="none" stroke-width="1" fill="none" fill-rule="evenodd">
        <g id="Group-Copy" fill="#312F2F">
            <path d="M154.1781,60.9764558 C151.233268,65.2020042 148.525188,67.7799907 144.28935,67.7799907 C133.528507,67.7799907 129.629484,58.0168143 132.081863,50.3882567 C134.325993,43.4074902 142.544939,38.7986052 152.0541,44.9759674 C159.52635,41.8471535 167.36085,38.2942465 174.5946,35.0797116 C167.0931,16.4421767 155.6721,-2.63524186 128.71935,1.22671163 C85.1571,7.47306047 71.05185,64.1684326 99.32535,93.3225721 C125.7066,120.527688 174.16935,100.823153 176.4756,60.6425953 C168.6411,60.6425953 161.3061,61.0215721 154.1781,60.9764558 Z" id="Fill-3"></path>
            <path d="M151.508142,48.3623953 C148.196625,49.6865581 140.835698,51.9987674 141.560093,55.3125581 C142.628687,60.2144419 160.22112,58.2203023 164.711465,58.0285581 C174.146589,57.6292791 180.204955,57.4352791 188.207038,57.2006744 L188.207038,32.1411856" id="Fill-5"></path>
            <path d="M164.843325,98.6765209 C154.358325,104.983777 143.049825,112.953567 124.431075,111.166963 C104.545575,109.256288 84.450825,101.814358 63.874575,97.0388 C63.874575,117.09073 63.804825,138.385614 63.804825,158.444312 C97.568325,169.412079 130.479075,181.239312 164.852325,191.595753 C165.102075,162.863451 165.432825,125.563567 164.843325,98.6765209" id="Fill-7"></path>
            <path d="M97.532325,99.603886 C97.532325,99.603886 74.055825,81.7919791 78.051825,45.466607 C79.005825,36.7546535 86.518575,11.9519791 109.128825,0.32325814 L26.171325,3.8084907 C26.171325,3.8084907 3.306825,14.8664907 1.140075,38.6179558 C1.140075,38.6179558 -3.951675,67.061514 26.171325,79.3737465 L97.532325,99.603886 Z" id="Fill-9"></path>
        </g>
    </g>
</svg>