<?xml version="1.0" standalone="no"?>
<!DOCTYPE svg PUBLIC "-//W3C//DTD SVG 1.1//EN" "http://www.w3.org/Graphics/SVG/1.1/DTD/svg11.dtd" >
<svg xmlns="http://www.w3.org/2000/svg" xmlns:xlink="http://www.w3.org/1999/xlink" version="1.1">
<metadata>
Created by FontForge 20190801 at Fri Nov 27 08:45:17 1992
 By Unknown
From the WSI-FONT Collection.  Copyright (c) 1992 W.S.I.  All Rights Reserved.  Redistribution strictly prohibited.  
</metadata>
<defs>
<font id="HammerThin" horiz-adv-x="518" >
  <font-face 
    font-family="Hammer Thin"
    font-weight="5"
    font-stretch="normal"
    units-per-em="1000"
    panose-1="0 0 0 0 0 0 0 0 0 0"
    ascent="800"
    descent="-200"
    x-height="441"
    cap-height="693"
    bbox="-68 -266 2471 893"
    underline-thickness="30"
    underline-position="-115"
    unicode-range="U+0020-F002"
  />
<missing-glyph horiz-adv-x="800" 
d="M50 0v800h700v-800h-700zM700 50v700h-600v-700h600z" />
    <glyph glyph-name=".notdef" horiz-adv-x="800" 
d="M50 0v800h700v-800h-700zM700 50v700h-600v-700h600z" />
    <glyph glyph-name=".null" horiz-adv-x="0" 
 />
    <glyph glyph-name="nonmarkingreturn" horiz-adv-x="250" 
 />
    <glyph glyph-name="space" unicode=" " horiz-adv-x="250" 
 />
    <glyph glyph-name="exclam" unicode="!" horiz-adv-x="148" 
d="M104 98h-32v595h32v-595zM111 15q0 -22 -24 -22q-22 0 -22 24q0 9 7.5 15.5t16.5 6.5q22 0 22 -24z" />
    <glyph glyph-name="quotedbl" unicode="&#x22;" horiz-adv-x="205" 
d="M141 673q0 -19 -13 -30v-74h-17v75q-13 10 -13 27q0 23 23 23q20 0 20 -21zM88 673q0 -19 -13 -30v-74h-17v75q-13 10 -13 27q0 23 22 23q21 0 21 -21z" />
    <glyph glyph-name="numbersign" unicode="#" horiz-adv-x="580" 
d="M512 459l-14 -45h-117l-43 -185h123l-14 -45h-121l-47 -186h-35l47 186h-121l-45 -186h-33l43 186h-110l14 45h111l41 185h-123l10 45h127l45 205h37l-47 -205h121l45 205h35l-46 -205h117zM346 412h-119l-43 -187h121z" />
    <glyph glyph-name="dollar" unicode="$" horiz-adv-x="313" 
d="M271 315q0 -46 -30.5 -79.5t-74.5 -38.5v-49h-33v47q-48 8 -94 35v34q23 -15 51.5 -24.5t54.5 -9.5q38 0 65.5 22.5t27.5 65.5q0 62 -102.5 101.5t-102.5 122.5q0 36 28.5 63t71.5 40v48h33v-48q27 -5 54 -13t44 -13v-35q-32 14 -58 21.5t-53 7.5q-33 0 -58.5 -21.5
t-25.5 -55.5q0 -52 101 -92t101 -129z" />
    <glyph glyph-name="percent" unicode="%" horiz-adv-x="828" 
d="M358 537q0 -59 -47 -98t-111 -39q-59 0 -98.5 47t-39.5 110q0 59 47.5 98.5t110.5 39.5q59 0 98.5 -47.5t39.5 -110.5zM645 705l-450 -709h-31l447 709h34zM747 137q0 -62 -44.5 -104.5t-107.5 -42.5q-62 0 -105 45t-43 108q0 62 44.5 104.5t108.5 42.5q62 0 104.5 -44.5
t42.5 -108.5zM329 544q0 51 -34 87t-83 36q-51 0 -87 -34t-36 -83q0 -50 34.5 -86.5t83.5 -36.5q51 0 86.5 33.5t35.5 83.5zM715 141q0 48 -35 82t-85 34q-48 0 -82 -35t-34 -85q0 -48 35.5 -81.5t85.5 -33.5q47 0 81 35t34 84z" />
    <glyph glyph-name="ampersand" unicode="&#x26;" horiz-adv-x="537" 
d="M512 0h-37l-46 70q-75 -75 -178 -75q-95 0 -157 64t-62 154q0 70 43 127.5t113 93.5l-42 68q-21 40 -21 82q0 49 34 84t91 35q52 0 85.5 -34.5t33.5 -84.5q0 -52 -40.5 -95.5t-99.5 -68.5l197 -290q17 29 21 67.5t4 93.5q0 36 -4 64h30q1 -16 1.5 -32t0.5 -32
q0 -61 -6 -102.5t-26 -86.5zM333 583q0 37 -22 63t-65 26q-37 0 -63.5 -28.5t-26.5 -65.5q0 -22 14 -50.5t44 -80.5q49 21 84 57t35 79zM411 96l-208 304q-47 -10 -95.5 -68t-48.5 -120q0 -80 63.5 -136t140.5 -56q43 0 81.5 21.5t66.5 54.5z" />
    <glyph glyph-name="quotesingle" unicode="'" horiz-adv-x="115" 
d="M82 679q0 -19 -13 -30v-74h-17v75q-13 10 -13 27q0 23 23 23q20 0 20 -21z" />
    <glyph glyph-name="parenleft" unicode="(" horiz-adv-x="240" 
d="M201 -10l-33 -2q-64 76 -98 168.5t-34 199.5q0 99 33.5 176.5t100.5 164.5h31q-69 -93 -103 -175t-34 -159q0 -131 38 -210t99 -163z" />
    <glyph glyph-name="parenright" unicode=")" horiz-adv-x="240" 
d="M209 348q0 -98 -39.5 -196.5t-101.5 -163.5h-29q52 77 76.5 119.5t41 102.5t16.5 144q0 113 -35 186t-99 157h33q63 -86 100 -163t37 -186z" />
    <glyph glyph-name="asterisk" unicode="*" horiz-adv-x="369" 
d="M328 537l-131 12l104 -78l-26 -28l-82 96l12 -127h-37l16 129l-86 -105l-26 35l104 78l-135 -10v37l135 -17l-102 82l26 31l84 -108l-16 131h37l-12 -127l82 98l26 -27l-104 -78l131 13v-37z" />
    <glyph glyph-name="plus" unicode="+" horiz-adv-x="570" 
d="M445 275h-166v-218h-37v218h-170v36h170v214h39v-214h164v-36z" />
    <glyph glyph-name="comma" unicode="," horiz-adv-x="148" 
d="M105 11q0 -8 -3.5 -15t-5.5 -12l-32 -66h-17l27 75q-11 5 -15.5 10.5t-4.5 17.5q0 10 4.5 17.5t12.5 7.5q18 0 26 -10t8 -25z" />
    <glyph glyph-name="hyphen" unicode="-" horiz-adv-x="313" 
d="M268 205h-223v27h223v-27z" />
    <glyph glyph-name="hyphen" unicode="&#xad;" horiz-adv-x="313" 
d="M268 205h-223v27h223v-27z" />
    <glyph glyph-name="period" unicode="." horiz-adv-x="148" 
d="M93 23q0 -10 -6.5 -16.5t-16.5 -6.5t-17.5 6.5t-7.5 16.5q0 24 24 24t24 -24z" />
    <glyph glyph-name="slash" unicode="/" horiz-adv-x="277" 
d="M283 703l-256 -711h-31l254 711h33z" />
    <glyph glyph-name="zero" unicode="0" 
d="M484 216q0 -96 -68 -162t-162 -66q-89 0 -159.5 68t-70.5 162v240q0 98 66 169t161 71q99 0 166 -66t67 -159v-257zM455 222v249q0 78 -62 136t-141 58q-83 0 -139.5 -59.5t-56.5 -138.5l-1 -233q0 -94 58.5 -155.5t152.5 -61.5q78 0 133.5 59t55.5 146z" />
    <glyph glyph-name="one" unicode="1" horiz-adv-x="164" 
d="M102 0h-32v662h-49v31h65q16 0 16 -13v-680z" />
    <glyph glyph-name="two" unicode="2" horiz-adv-x="496" 
d="M454 498q0 -38 -11 -71.5t-36.5 -60t-73.5 -77t-124 -130t-125 -128.5h367v-31h-392q-19 0 -19 16q0 12 9 21l324 336q24 24 36.5 59t12.5 65q0 74 -51 123t-118 49q-77 0 -129 -51t-52 -120h-31q9 89 67 146t137 57q84 0 146.5 -58t62.5 -145z" />
    <glyph glyph-name="three" unicode="3" horiz-adv-x="461" 
d="M419 185q0 -81 -54 -137t-143 -56q-91 0 -141 56t-50 138h30q0 -68 48 -117t112 -49q74 0 121.5 48.5t47.5 118.5q0 83 -60 125.5t-125 42.5q-4 16 -2 24q66 0 116.5 47.5t50.5 108.5q0 51 -44.5 92.5t-102.5 41.5q-60 0 -102.5 -43.5t-42.5 -102.5h-31q0 70 49 124
t116 54q84 0 135.5 -52.5t51.5 -129.5q0 -50 -27 -89t-77 -65q60 -19 92 -69t32 -111z" />
    <glyph glyph-name="four" unicode="4" horiz-adv-x="445" 
d="M381 0h-33v209h-311q-10 4 -14 14q-4 14 6 29l282 443h35l-287 -455h289v455h33v-695z" />
    <glyph glyph-name="five" unicode="5" 
d="M473 210q0 -93 -61 -156t-159 -63q-88 0 -152 65t-64 157h29q0 -80 56.5 -137.5t132.5 -57.5q82 0 135 55t53 143q0 91 -69 140.5t-179 49.5h-97q-9 0 -12.5 10t-3.5 23v254h332v-35h-299v-220q187 0 272.5 -53t85.5 -175z" />
    <glyph glyph-name="six" unicode="6" 
d="M478 218q0 -96 -59.5 -160.5t-156.5 -64.5t-160.5 62.5t-63.5 156.5q0 31 5.5 55t20.5 51l211 375h38l-167 -289q59 28 113 28q87 0 153 -60t66 -154zM449 209q0 79 -55.5 137.5t-134.5 58.5t-135.5 -58.5t-56.5 -136.5q0 -79 56.5 -135.5t138.5 -56.5q86 0 136.5 58
t50.5 133z" />
    <glyph glyph-name="seven" unicode="7" horiz-adv-x="461" 
d="M451 658l-355 -658h-30l352 658h-371v33h383q10 0 16.5 -7.5t6.5 -16.5q0 -5 -2 -9z" />
    <glyph glyph-name="eight" unicode="8" horiz-adv-x="480" 
d="M437 190q0 -87 -56 -142t-146 -55q-81 0 -140 57t-59 138q0 64 34.5 114t99.5 77q-48 23 -74.5 65.5t-26.5 91.5q0 67 47.5 116.5t120.5 49.5q71 0 121.5 -50.5t50.5 -117.5q0 -41 -28.5 -87.5t-71.5 -65.5q61 -25 94.5 -77.5t33.5 -113.5zM377 530q0 57 -39.5 99.5
t-100.5 42.5q-63 0 -100.5 -44t-37.5 -102q0 -52 41.5 -92.5t98.5 -40.5q58 0 98 39t40 98zM409 178q0 76 -47.5 130.5t-119.5 54.5q-71 0 -124.5 -52.5t-53.5 -122.5q0 -73 52.5 -122.5t124.5 -49.5q67 0 117.5 49.5t50.5 112.5z" />
    <glyph glyph-name="nine" unicode="9" 
d="M471 485q0 -23 -3 -40.5t-21 -50.5l-218 -394h-32l166 291q-49 -25 -103 -25q-92 0 -159.5 59t-67.5 148q0 91 62.5 158.5t156.5 67.5q90 0 154.5 -61.5t64.5 -152.5zM442 479q0 76 -54 132t-132 56q-81 0 -137 -56t-56 -137q0 -73 57 -128t133 -55q80 0 134.5 51.5
t54.5 136.5z" />
    <glyph glyph-name="colon" unicode=":" horiz-adv-x="148" 
d="M103 301q0 -24 -23 -24q-9 0 -17 7t-8 17q0 24 24 24t24 -24zM104 18q0 -10 -7 -16t-18 -6q-23 0 -23 24q0 10 7.5 16.5t17.5 6.5t16.5 -7.5t6.5 -17.5z" />
    <glyph glyph-name="semicolon" unicode=";" horiz-adv-x="148" 
d="M105 303q0 -24 -25 -24q-11 0 -18 7t-7 19q0 10 7.5 17t18.5 7q10 0 17 -7.5t7 -18.5zM105 14q0 -20 -5 -30l-36 -70h-17l29 80q-10 5 -14 10.5t-4 16.5q0 10 4.5 17.5t12.5 7.5q17 0 23.5 -8.5t6.5 -23.5z" />
    <glyph glyph-name="less" unicode="&#x3c;" horiz-adv-x="277" 
d="M219 369l-119 -148l115 -151h-37l-119 151l117 148h43z" />
    <glyph glyph-name="equal" unicode="=" horiz-adv-x="551" 
d="M416 348h-297v45h297v-45zM416 191h-297v43h297v-43z" />
    <glyph glyph-name="greater" unicode="&#x3e;" horiz-adv-x="277" 
d="M223 223l-123 -149h-39l113 153l-115 146h41z" />
    <glyph glyph-name="question" unicode="?" horiz-adv-x="496" 
d="M463 482q0 -80 -51.5 -132.5t-136.5 -70.5v-177h-35v162l-3 11q0 22 58.5 44t96 54t37.5 114q0 73 -49.5 126.5t-122.5 53.5q-84 0 -136.5 -52.5t-52.5 -130.5h-29q0 87 64 151t148 64q90 0 151 -65t61 -152zM285 13q0 -11 -7.5 -18.5t-18.5 -7.5t-18.5 7.5t-7.5 18.5
t7.5 18.5t18.5 7.5t18.5 -7.5t7.5 -18.5z" />
    <glyph glyph-name="at" unicode="@" horiz-adv-x="672" 
d="M646 313q0 -75 -30.5 -125.5t-102.5 -50.5h-50l1 77q-14 -38 -58 -56t-86 -18q-77 0 -117.5 44.5t-40.5 117.5q0 69 40.5 122.5t113.5 53.5q70 0 124 -52t54 -123v-131q63 0 90.5 28.5t27.5 117.5q0 130 -82.5 208.5t-204.5 78.5q-132 0 -205 -85.5t-73 -211.5
q0 -116 83 -199t217 -83q26 0 48.5 3t42.5 12v-37q-45 -12 -91 -12q-141 0 -238 86t-97 224q0 140 82.5 238t228.5 98q62 0 134.5 -26t130.5 -98.5t58 -200.5zM460 298q0 59 -44 104t-103 45q-54 0 -88 -43.5t-34 -99.5t33.5 -96t93.5 -40t101 34.5t41 95.5z" />
    <glyph glyph-name="A" unicode="A" horiz-adv-x="496" 
d="M492 0h-31l-59 160h-316l-55 -160h-31l213 664q11 34 26 34q8 0 15.5 -7.5t13.5 -26.5zM393 191l-155 454l-142 -454h297z" />
    <glyph glyph-name="B" unicode="B" horiz-adv-x="461" 
d="M419 197q0 -80 -57.5 -138.5t-130.5 -58.5h-162q-6 0 -9 7t-3 13v648q0 9 4.5 17t12.5 8h152q60 0 102 -49t42 -114q0 -53 -22.5 -86.5t-64.5 -58.5q66 -18 101 -69.5t35 -118.5zM341 530q0 55 -37.5 93.5t-92.5 38.5h-119v-267h123q50 0 88 41t38 94zM390 197
q0 64 -45 113t-113 49h-144v-332h148q61 0 107.5 50t46.5 120z" />
    <glyph glyph-name="C" unicode="C" horiz-adv-x="445" 
d="M422 0h-54q-138 0 -240.5 100.5t-102.5 243.5q0 169 112.5 259t226.5 90h58v-27h-37q-134 0 -231.5 -88.5t-97.5 -227.5q0 -125 95 -224t246 -99q10 1 14 1q8 0 11 -1v-27z" />
    <glyph glyph-name="D" unicode="D" 
d="M476 335q0 -142 -105 -238.5t-229 -96.5h-70q-5 0 -9 7t-4 16v645q0 13 11.5 20t27.5 7q150 0 264 -88.5t114 -271.5zM446 330q0 134 -90 232.5t-237 98.5l-31 -3v-631l41 -3q123 0 220 93t97 213z" />
    <glyph glyph-name="E" unicode="E" horiz-adv-x="404" 
d="M369 0h-297q-5 0 -9 7.5t-4 15.5v631q0 14 4 25.5t13 11.5h293v-31h-277v-265h263v-32h-263v-331h277v-32z" />
    <glyph glyph-name="F" unicode="F" horiz-adv-x="389" 
d="M367 662h-275v-267h260v-30h-260v-365h-35v666q-5 15 15 25h295v-29z" />
    <glyph glyph-name="G" unicode="G" 
d="M463 47q0 -29 -16 -40t-67 -11q-155 0 -253.5 109t-98.5 247q0 122 94.5 233.5t272.5 111.5l33 -2v-27l-31 1q-151 0 -245 -94t-94 -233q0 -122 98 -219t218 -97q16 0 31 2.5l27 4.5v360h31v-346z" />
    <glyph glyph-name="H" unicode="H" horiz-adv-x="572" 
d="M512 0h-35v359h-389v-359h-31v691h31v-298h389v298h35v-691z" />
    <glyph glyph-name="I" unicode="I" horiz-adv-x="164" 
d="M100 0h-32v693h32v-693z" />
    <glyph glyph-name="J" unicode="J" horiz-adv-x="277" 
d="M223 195q0 -76 -54 -136t-130 -60q-13 0 -19 1v27q69 0 121 50t52 119v495h30v-496z" />
    <glyph glyph-name="K" unicode="K" horiz-adv-x="424" 
d="M422 0h-39l-278 330q-5 6 -7 12t-2 12q0 8 2.5 14t10.5 15l272 305h41l-299 -333zM88 0h-31v688h31v-688z" />
    <glyph glyph-name="L" unicode="L" horiz-adv-x="389" 
d="M367 0h-289q-12 4 -16.5 12.5t-4.5 18.5v662h35v-664h275v-29z" />
    <glyph glyph-name="M" unicode="M" horiz-adv-x="701" 
d="M637 0h-33v617l-239 -615q-3 -8 -18 -8q-13 0 -15 6l-244 615v-615h-31v668q0 9 5 18.5t12 9.5q10 0 18.5 -6.5t12.5 -15.5l249 -629l234 629q2 6 6 14t17 8q10 0 18 -7.5t8 -26.5v-662z" />
    <glyph glyph-name="N" unicode="N" horiz-adv-x="572" 
d="M514 20q0 -13 -6.5 -19.5t-15.5 -6.5t-12 6l-392 631v-631h-31v680q0 20 13 20q17 0 32 -24l378 -617v632h34v-671z" />
    <glyph glyph-name="O" unicode="O" horiz-adv-x="777" 
d="M733 357q0 -147 -101 -252t-247 -105q-147 0 -252.5 100.5t-105.5 246.5q0 147 101.5 252.5t246.5 105.5q147 0 252.5 -101.5t105.5 -246.5zM703 357q0 133 -96.5 225.5t-231.5 92.5q-133 0 -225.5 -96.5t-92.5 -231.5q0 -132 96.5 -224.5t231.5 -92.5q133 0 225.5 95.5
t92.5 231.5z" />
    <glyph glyph-name="P" unicode="P" horiz-adv-x="389" 
d="M367 502q0 -78 -55 -129t-131 -51h-89v-322h-33v660q3 12 10.5 21.5t18.5 9.5h103q74 0 125 -55t51 -134zM337 502q0 62 -44.5 110.5t-115.5 48.5h-85v-309h111q52 0 93 44t41 106z" />
    <glyph glyph-name="Q" unicode="Q" horiz-adv-x="777" 
d="M740 -5l-45 5l-74 94q-60 -48 -113.5 -71t-122.5 -23q-147 0 -252.5 100.5t-105.5 246.5q0 147 101.5 252.5t246.5 105.5q147 0 252.5 -101.5t105.5 -246.5q0 -71 -22.5 -132t-64.5 -111zM703 357q0 133 -96.5 225.5t-231.5 92.5q-133 0 -225.5 -96.5t-92.5 -231.5
q0 -132 96.5 -224.5t231.5 -92.5q133 0 225.5 95.5t92.5 231.5z" />
    <glyph glyph-name="R" unicode="R" horiz-adv-x="424" 
d="M410 0h-41l-267 320l-6 16q2 10 6.5 14.5t16.5 4.5l94 4q68 0 108.5 44.5t40.5 108.5q0 55 -44.5 100.5t-96.5 45.5h-129v-658h-33v660q3 14 12 22.5t19 8.5h116q82 0 134.5 -53.5t52.5 -129.5q0 -67 -46.5 -122.5t-108.5 -55.5l-95 -8z" />
    <glyph glyph-name="S" unicode="S" horiz-adv-x="424" 
d="M388 174q0 -83 -57.5 -131t-139.5 -48q-42 0 -83 12t-85 36v39q35 -24 79.5 -39.5t85.5 -15.5q70 0 117 38t47 117q0 82 -82 125q-77 34 -154 69q-83 51 -83 150q0 69 53 123t130 54q42 0 81 -13t84 -38v-33q-41 22 -81.5 35t-78.5 13q-63 0 -109.5 -39.5t-46.5 -99.5
q0 -88 83 -132l156 -70q84 -51 84 -152z" />
    <glyph glyph-name="T" unicode="T" horiz-adv-x="369" 
d="M363 662h-164v-662h-31v660h-164v31h359v-29z" />
    <glyph glyph-name="U" unicode="U" horiz-adv-x="572" 
d="M512 207q0 -79 -66.5 -149t-158.5 -70q-95 0 -163.5 64.5t-68.5 155.5v483h31v-481q0 -89 60.5 -139t141.5 -50t135 52t54 136v482h35v-484z" />
    <glyph glyph-name="V" unicode="V" horiz-adv-x="496" 
d="M490 695l-222 -681q-2 -7 -6 -16t-16 -9q-8 0 -14 5t-11 20l-219 681h41l205 -648l203 648h39z" />
    <glyph glyph-name="W" unicode="W" horiz-adv-x="721" 
d="M703 693l-164 -681q-5 -19 -20 -19q-6 0 -11 3.5t-6 7.5l-148 615l-149 -615q-1 -5 -7 -8t-13 -3q-14 0 -17 15l-162 685h33l149 -625l144 610q4 9 9 14t13 5q7 0 12 -5.5t9 -15.5l146 -612l147 629h35z" />
    <glyph glyph-name="X" unicode="X" horiz-adv-x="445" 
d="M430 0h-35l-178 313l-170 -311l-37 -2l187 350l-187 341h37l170 -302l168 302h39l-186 -341z" />
    <glyph glyph-name="Y" unicode="Y" horiz-adv-x="449" 
d="M430 688l-192 -401v-287h-35v287l-203 401h39l186 -358l170 358h35z" />
    <glyph glyph-name="Z" unicode="Z" horiz-adv-x="445" 
d="M424 668l-373 -637h371v-31h-387q-22 0 -22 20q0 13 8 27l362 613h-363v31h394q14 0 14 -12q0 -3 -4 -11z" />
    <glyph glyph-name="bracketleft" unicode="[" horiz-adv-x="240" 
d="M203 668h-129v-641h127v-27h-156v693h158v-25z" />
    <glyph glyph-name="backslash" unicode="\" horiz-adv-x="492" 
d="M469 -14h-39l-418 653h47z" />
    <glyph glyph-name="bracketright" unicode="]" horiz-adv-x="240" 
d="M195 0h-156v27h127v641h-127v25h156v-693z" />
    <glyph glyph-name="asciicircum" unicode="^" horiz-adv-x="332" 
d="M297 500h-22l-111 94l-113 -94h-20l117 121h30z" />
    <glyph glyph-name="underscore" unicode="_" horiz-adv-x="609" 
d="M609 -100l-1 -30h-608v30h609z" />
    <glyph glyph-name="grave" unicode="`" horiz-adv-x="332" 
d="M211 500h-23l-120 121h41z" />
    <glyph glyph-name="a" unicode="a" horiz-adv-x="537" 
d="M484 0h-25v111q-32 -56 -85.5 -87t-113.5 -31q-98 0 -161 68t-63 164q0 94 63.5 159.5t158.5 65.5q94 0 160 -69t66 -166v-215zM457 217q0 84 -57.5 143.5t-139.5 59.5t-139 -56t-57 -139q0 -82 55.5 -143.5t135.5 -61.5q84 0 143 57t59 140z" />
    <glyph glyph-name="b" unicode="b" horiz-adv-x="537" 
d="M497 209q0 -94 -64 -156t-162 -62q-84 0 -153 55.5t-69 135.5v502h31v-344q35 50 87 79t109 29q89 0 155 -67t66 -172zM472 212q0 85 -57 144t-140 59t-140.5 -58.5t-57.5 -143.5q0 -81 57.5 -139.5t135.5 -58.5q83 0 142.5 57.5t59.5 139.5z" />
    <glyph glyph-name="c" unicode="c" horiz-adv-x="332" 
d="M314 -2l-30 -1q-114 0 -185.5 62.5t-71.5 166.5q0 92 65.5 154.5t174.5 62.5h47v-31l-32 2q-100 0 -162 -51t-62 -138q0 -83 61 -141t156 -58h39v-28z" />
    <glyph glyph-name="d" unicode="d" horiz-adv-x="537" 
d="M486 219q0 -91 -67.5 -158.5t-167.5 -67.5q-94 0 -158.5 69.5t-64.5 159.5t65.5 157.5t165.5 67.5q66 0 113 -30.5t85 -84.5v354h29v-467zM457 217q0 84 -57.5 143.5t-139.5 59.5t-140 -57t-58 -140t56 -143t137 -60q83 0 142.5 57.5t59.5 139.5z" />
    <glyph glyph-name="e" unicode="e" 
d="M487 240q0 -11 -1 -16.5t-7 -12.5h-420q0 -82 61.5 -137t142.5 -55q65 0 117.5 42.5t70.5 112.5h33q-16 -82 -79 -132t-144 -50q-107 0 -170.5 71t-63.5 158q0 105 74.5 167.5t149.5 62.5q96 0 166 -66t70 -145zM457 238q0 75 -60.5 128t-138.5 53q-84 0 -137.5 -50
t-61.5 -131h398z" />
    <glyph glyph-name="f" unicode="f" horiz-adv-x="205" 
d="M219 414h-127v-414h-33v555q0 58 40 98t98 40h18v-29q-48 0 -85.5 -28t-37.5 -70v-119h127v-33z" />
    <glyph glyph-name="g" unicode="g" horiz-adv-x="537" 
d="M484 -47q0 -83 -60 -149t-146 -66q-96 0 -156.5 60.5t-60.5 150.5h31l-1 -10q0 -74 55.5 -121t130.5 -47q81 0 129.5 58.5t48.5 139.5v133q-32 -55 -86.5 -84t-116.5 -29q-95 0 -159.5 65.5t-64.5 167.5q0 87 68.5 154.5t156.5 67.5q89 0 160 -63t71 -153v-275zM452 212
q0 83 -57 143t-140 60q-82 0 -140 -57t-58 -140t56 -143t137 -60q84 0 143 58t59 139z" />
    <glyph glyph-name="h" unicode="h" horiz-adv-x="424" 
d="M366 0h-28v295q0 51 -45 88t-98 37q-54 0 -91.5 -45t-37.5 -112v-263h-27v682h29l2 -299q57 66 133 66q66 0 114.5 -45.5t48.5 -105.5v-298z" />
    <glyph glyph-name="i" unicode="i" horiz-adv-x="148" 
d="M95 578q0 -23 -24 -23q-10 0 -17 7t-7 18q0 10 7.5 16.5t17.5 6.5t16.5 -7.5t6.5 -17.5zM92 -2h-31v440h31v-440z" />
    <glyph glyph-name="j" unicode="j" horiz-adv-x="148" 
d="M102 577q0 -26 -26 -26q-12 0 -20 7t-8 19q0 11 8 19t19 8t19 -8t8 -19zM92 -125q0 -64 -47 -99.5t-113 -35.5v31l15 -1q44 0 77 29t33 70v569h35v-563z" />
    <glyph glyph-name="k" unicode="k" horiz-adv-x="332" 
d="M338 -2h-41l-205 221q-8 8 -8 13q0 6 6 12l187 194h43l-201 -202zM78 0h-29v680h29v-680z" />
    <glyph glyph-name="l" unicode="l" horiz-adv-x="148" 
d="M92 0h-31v682h31v-682z" />
    <glyph glyph-name="m" unicode="m" horiz-adv-x="609" 
d="M559 0h-32v309q0 44 -26 74.5t-77 30.5q-48 0 -79 -33t-31 -84v-297h-29v314q0 41 -35 71t-74 30q-35 0 -67.5 -25.5t-32.5 -59.5v-330h-31v320q0 53 41 90.5t95 37.5q35 0 65.5 -20.5t56.5 -54.5q21 34 56.5 53.5t74.5 19.5q50 0 87.5 -39.5t37.5 -99.5v-307z" />
    <glyph glyph-name="n" unicode="n" horiz-adv-x="424" 
d="M375 0h-29v277q0 52 -39 96.5t-94 44.5q-57 0 -96 -39t-39 -98v-281h-29v277q0 69 48.5 120.5t113.5 51.5q67 0 115.5 -46.5t48.5 -111.5v-291z" />
    <glyph glyph-name="o" unicode="o" 
d="M485 209q0 -95 -69 -162t-166 -67q-95 0 -163 69t-68 166q0 95 69.5 162.5t166.5 67.5q95 0 162.5 -69.5t67.5 -166.5zM455 212q0 84 -58.5 146t-141.5 62q-82 0 -143 -60t-61 -142q0 -87 57.5 -147.5t141.5 -60.5q88 0 146.5 58.5t58.5 143.5z" />
    <glyph glyph-name="p" unicode="p" horiz-adv-x="537" 
d="M505 220q0 -97 -68.5 -162t-160.5 -65q-60 0 -110.5 28.5t-89.5 83.5v-349h-29v482q0 75 67 143t146 68q113 0 179 -62t66 -167zM477 217q0 84 -57.5 143.5t-139.5 59.5t-140 -57t-58 -140t56 -143t137 -60q83 0 142.5 57.5t59.5 139.5z" />
    <glyph glyph-name="q" unicode="q" horiz-adv-x="537" 
d="M482 -252h-29v361q-33 -54 -89.5 -84.5t-120.5 -30.5q-94 0 -157 67t-63 161q0 88 65.5 157t170.5 69q93 0 158 -73.5t65 -144.5v-482zM447 217q0 84 -57.5 143.5t-139.5 59.5t-140 -57t-58 -140q0 -82 55.5 -142.5t137.5 -60.5q83 0 142.5 57.5t59.5 139.5z" />
    <glyph glyph-name="r" unicode="r" horiz-adv-x="221" 
d="M215 414q-49 0 -89 -27t-40 -67v-320h-29v324q0 51 44 84.5t99 33.5q10 0 15 -1v-27z" />
    <glyph glyph-name="s" unicode="s" horiz-adv-x="297" 
d="M266 416l-2 -31q-37 19 -60.5 28t-55.5 9q-40 0 -64 -28t-24 -67q0 -50 102.5 -88t102.5 -120q0 -63 -39.5 -96.5t-95.5 -33.5q-60 0 -107 38l2 34q32 -26 51 -36t57 -10q44 0 74.5 24t30.5 75q0 70 -103.5 106t-103.5 106q0 48 32.5 85.5t82.5 37.5q31 0 59.5 -8.5
t60.5 -24.5z" />
    <glyph glyph-name="t" unicode="t" horiz-adv-x="221" 
d="M215 406h-129v-291q0 -42 39.5 -68t87.5 -26v-27q-16 -2 -23 -2q-56 0 -95.5 39.5t-39.5 93.5v477h31v-164h129v-32z" />
    <glyph glyph-name="u" unicode="u" horiz-adv-x="424" 
d="M375 155q0 -65 -48 -114t-114 -49q-68 0 -117 45t-49 112v294h29v-294q0 -52 39 -89t96 -37q62 0 99.5 37.5t37.5 92.5v290h27v-288z" />
    <glyph glyph-name="v" unicode="v" horiz-adv-x="352" 
d="M348 443l-155 -443q-2 -6 -17 -6q-16 0 -18 6l-156 443h31l143 -400l138 400h34z" />
    <glyph glyph-name="w" unicode="w" horiz-adv-x="537" 
d="M521 441l-121 -443q-8 -8 -16 -8t-13.5 6.5t-7.5 15.5l-99 375l-104 -375q-4 -13 -8.5 -18.5t-10.5 -5.5q-4 0 -14 10l-121 443h33l102 -400l105 389q0 7 5 12t13 5q6 -1 11.5 -6t7.5 -11l102 -387l105 398h31z" />
    <glyph glyph-name="x" unicode="x" horiz-adv-x="369" 
d="M363 0h-35l-144 201l-143 -201h-31l154 225l-146 216h39l129 -193l128 193h36l-147 -212z" />
    <glyph glyph-name="y" unicode="y" horiz-adv-x="445" 
d="M387 -88q0 -75 -54 -124t-127 -49q-77 0 -126 49t-49 124h33q0 -61 39.5 -102.5t104.5 -41.5q56 0 101 39t45 94v160q-30 -31 -67.5 -49t-76.5 -18q-60 0 -108.5 43.5t-48.5 111.5v292h31v-279q0 -58 40.5 -98.5t96.5 -40.5q58 0 96 40t38 95v283h32v-529z" />
    <glyph glyph-name="z" unicode="z" horiz-adv-x="332" 
d="M314 0h-284q-5 0 -9 6t-4 12q0 5 10 19l248 375h-254v29h280q11 0 13 -13q3 -9 -3 -18l-252 -379h255v-31z" />
    <glyph glyph-name="braceleft" unicode="{" horiz-adv-x="289" 
d="M236 684h-58q-7 0 -15.5 -7.5t-8.5 -13.5v-294q0 -21 -13 -39.5t-32 -26.5q27 -18 37 -29.5t10 -37.5v-295q0 -5 5 -14t15 -9h56v-31h-62q-22 0 -45 23t-23 48v270q0 26 -17 47t-40 28q29 15 43 30.5t14 47.5v269q0 23 13.5 44t38.5 21h82v-31z" />
    <glyph glyph-name="bar" unicode="|" horiz-adv-x="609" 
d="M307 -12h-49v651h49v-651z" />
    <glyph glyph-name="braceright" unicode="}" horiz-adv-x="289" 
d="M235 303q-23 -7 -40 -28t-17 -47v-270q0 -26 -22.5 -48.5t-45.5 -22.5h-62v31h56q6 0 13 7t7 16v295q0 25 11 37.5t36 29.5q-18 7 -31.5 26.5t-13.5 39.5v294q0 9 -9 15t-15 6h-58v31h82q26 0 39 -20.5t13 -44.5v-269q0 -31 14.5 -47.5t42.5 -30.5z" />
    <glyph glyph-name="asciitilde" unicode="~" horiz-adv-x="400" 
d="M361 338q-9 -44 -28.5 -69t-56.5 -25q-18 0 -69 15t-78 15q-36 0 -57 -17.5t-21 -51.5l-23 5q4 45 31 68.5t67 23.5q19 0 65.5 -14.5t65.5 -14.5q34 0 55 14.5t21 50.5h28z" />
    <glyph glyph-name="Adieresis" unicode="&#xc4;" horiz-adv-x="496" 
d="M492 0h-31l-59 160h-316l-55 -160h-31l213 664q11 34 26 34q8 0 15.5 -7.5t13.5 -26.5zM393 191l-155 454l-142 -454h297zM348 776q0 -10 -6.5 -16.5t-16.5 -6.5t-17.5 6.5t-7.5 16.5q0 24 24 24t24 -24zM172 776q0 -10 -6.5 -16.5t-16.5 -6.5t-17.5 6.5t-7.5 16.5
q0 24 24 24t24 -24z" />
    <glyph glyph-name="Aring" unicode="&#xc5;" horiz-adv-x="496" 
d="M492 0h-31l-59 160h-316l-55 -160h-31l213 664q11 34 26 34q8 0 15.5 -7.5t13.5 -26.5zM393 191l-155 454l-142 -454h297zM315 806q0 -36 -20 -61.5t-55 -25.5q-34 0 -54.5 25.5t-20.5 61.5q0 37 20 62t55 25q34 0 54.5 -25.5t20.5 -61.5zM283 806q0 24 -10 41t-33 17
q-21 0 -32 -17.5t-11 -40.5q0 -24 10 -41t33 -17q21 0 32 17.5t11 40.5z" />
    <glyph glyph-name="Ccedilla" unicode="&#xc7;" horiz-adv-x="445" 
d="M422 0h-54l-26 1l-19 -32q-3 -6 -3 -11q0 -9 22 -26t22 -32q0 -29 -22.5 -48.5t-42.5 -19.5q-12 0 -38.5 7t-42.5 13l14 30q13 -7 25.5 -13t22.5 -6q14 0 27 13t13 24q0 8 -5.5 13t-45.5 31l40 62q-118 22 -201 119t-83 219q0 137 95 242t220 105l82 2v-29h-37
q-128 0 -228.5 -86t-100.5 -228q0 -140 97 -229.5t204 -89.5l65 -2v-29z" />
    <glyph glyph-name="Eacute" unicode="&#xc9;" horiz-adv-x="404" 
d="M369 0h-297q-5 0 -9 7.5t-4 15.5v631q0 14 4 25.5t13 11.5h293v-31h-277v-265h263v-32h-263v-331h277v-32zM295 866l-117 -121h-24l104 121h37z" />
    <glyph glyph-name="Ntilde" unicode="&#xd1;" horiz-adv-x="572" 
d="M514 20q0 -13 -6.5 -19.5t-15.5 -6.5t-12 6l-392 631v-631h-31v680q0 20 13 20q17 0 32 -24l378 -617v632h34v-671zM471 844q-16 -43 -37 -65.5t-55 -22.5q-24 0 -84 29.5t-93 29.5q-22 0 -39 -13.5t-23 -45.5l-31 13q11 41 38.5 62.5t60.5 21.5q25 0 80.5 -27.5
t81.5 -27.5t41 11.5t22 41.5z" />
    <glyph glyph-name="Odieresis" unicode="&#xd6;" horiz-adv-x="777" 
d="M733 357q0 -147 -101 -252t-247 -105q-147 0 -252.5 100.5t-105.5 246.5q0 147 101.5 252.5t246.5 105.5q147 0 252.5 -101.5t105.5 -246.5zM703 357q0 133 -96.5 225.5t-231.5 92.5q-133 0 -225.5 -96.5t-92.5 -231.5q0 -132 96.5 -224.5t231.5 -92.5q133 0 225.5 95.5
t92.5 231.5zM487 775q0 -10 -6.5 -16.5t-16.5 -6.5t-17.5 6.5t-7.5 16.5q0 24 24 24t24 -24zM311 775q0 -10 -6.5 -16.5t-16.5 -6.5t-17.5 6.5t-7.5 16.5q0 24 24 24t24 -24z" />
    <glyph glyph-name="Udieresis" unicode="&#xdc;" horiz-adv-x="572" 
d="M512 207q0 -79 -66.5 -149t-158.5 -70q-95 0 -163.5 64.5t-68.5 155.5v483h31v-481q0 -89 60.5 -139t141.5 -50t135 52t54 136v482h35v-484zM396 776q0 -10 -6.5 -16.5t-16.5 -6.5t-17.5 6.5t-7.5 16.5q0 24 24 24t24 -24zM220 776q0 -10 -6.5 -16.5t-16.5 -6.5
t-17.5 6.5t-7.5 16.5q0 24 24 24t24 -24z" />
    <glyph glyph-name="aacute" unicode="&#xe1;" horiz-adv-x="537" 
d="M484 0h-25v111q-32 -56 -85.5 -87t-113.5 -31q-98 0 -161 68t-63 164q0 94 63.5 159.5t158.5 65.5q94 0 160 -69t66 -166v-215zM457 217q0 84 -57.5 143.5t-139.5 59.5t-139 -56t-57 -139q0 -82 55.5 -143.5t135.5 -61.5q84 0 143 57t59 140zM336 626l-117 -121h-24
l104 121h37z" />
    <glyph glyph-name="agrave" unicode="&#xe0;" horiz-adv-x="537" 
d="M484 0h-25v111q-32 -56 -85.5 -87t-113.5 -31q-98 0 -161 68t-63 164q0 94 63.5 159.5t158.5 65.5q94 0 160 -69t66 -166v-215zM457 217q0 84 -57.5 143.5t-139.5 59.5t-139 -56t-57 -139q0 -82 55.5 -143.5t135.5 -61.5q84 0 143 57t59 140zM325 502h-23l-120 121h41z
" />
    <glyph glyph-name="acircumflex" unicode="&#xe2;" horiz-adv-x="537" 
d="M484 0h-25v111q-32 -56 -85.5 -87t-113.5 -31q-98 0 -161 68t-63 164q0 94 63.5 159.5t158.5 65.5q94 0 160 -69t66 -166v-215zM457 217q0 84 -57.5 143.5t-139.5 59.5t-139 -56t-57 -139q0 -82 55.5 -143.5t135.5 -61.5q84 0 143 57t59 140zM394 502h-22l-111 94
l-113 -94h-20l117 121h30z" />
    <glyph glyph-name="adieresis" unicode="&#xe4;" horiz-adv-x="537" 
d="M484 0h-25v111q-32 -56 -85.5 -87t-113.5 -31q-98 0 -161 68t-63 164q0 94 63.5 159.5t158.5 65.5q94 0 160 -69t66 -166v-215zM457 217q0 84 -57.5 143.5t-139.5 59.5t-139 -56t-57 -139q0 -82 55.5 -143.5t135.5 -61.5q84 0 143 57t59 140zM373 538q0 -10 -6.5 -16.5
t-16.5 -6.5t-17.5 6.5t-7.5 16.5q0 24 24 24t24 -24zM197 538q0 -10 -6.5 -16.5t-16.5 -6.5t-17.5 6.5t-7.5 16.5q0 24 24 24t24 -24z" />
    <glyph glyph-name="atilde" unicode="&#xe3;" horiz-adv-x="537" 
d="M484 0h-25v111q-32 -56 -85.5 -87t-113.5 -31q-98 0 -161 68t-63 164q0 94 63.5 159.5t158.5 65.5q94 0 160 -69t66 -166v-215zM457 217q0 84 -57.5 143.5t-139.5 59.5t-139 -56t-57 -139q0 -82 55.5 -143.5t135.5 -61.5q84 0 143 57t59 140zM445 602q-16 -43 -37 -65.5
t-55 -22.5q-24 0 -84 29.5t-93 29.5q-22 0 -39 -13.5t-23 -45.5l-31 13q11 41 38.5 62.5t60.5 21.5q25 0 80.5 -27.5t81.5 -27.5t41 11.5t22 41.5z" />
    <glyph glyph-name="aring" unicode="&#xe5;" horiz-adv-x="537" 
d="M484 0h-25v111q-32 -56 -85.5 -87t-113.5 -31q-98 0 -161 68t-63 164q0 94 63.5 159.5t158.5 65.5q94 0 160 -69t66 -166v-215zM457 217q0 84 -57.5 143.5t-139.5 59.5t-139 -56t-57 -139q0 -82 55.5 -143.5t135.5 -61.5q84 0 143 57t59 140zM336 569q0 -36 -20 -61.5
t-55 -25.5q-34 0 -54.5 25.5t-20.5 61.5q0 37 20 62t55 25q34 0 54.5 -25.5t20.5 -61.5zM304 569q0 24 -10 41t-33 17q-21 0 -32 -17.5t-11 -40.5q0 -24 10 -41t33 -17q21 0 32 17.5t11 40.5z" />
    <glyph glyph-name="ccedilla" unicode="&#xe7;" horiz-adv-x="332" 
d="M221 3q-89 16 -141.5 74.5t-52.5 148.5q0 92 65.5 154.5t174.5 62.5h47v-31l-32 2q-100 0 -162 -51t-62 -138q0 -83 61 -141t156 -58h39v-28l-30 -1l-35 2l-18 -25q-8 -12 14 -25t22 -24q0 -20 -19.5 -34t-37.5 -14q-14 0 -31.5 3.5t-39.5 10.5l13 21q14 -6 24 -9.5
t18 -3.5t21.5 8t13.5 18q0 8 -15 15.5t-30 15.5z" />
    <glyph glyph-name="eacute" unicode="&#xe9;" 
d="M487 240q0 -11 -1 -16.5t-7 -12.5h-420q0 -82 61.5 -137t142.5 -55q65 0 117.5 42.5t70.5 112.5h33q-16 -82 -79 -132t-144 -50q-107 0 -170.5 71t-63.5 158q0 105 74.5 167.5t149.5 62.5q96 0 166 -66t70 -145zM457 238q0 75 -60.5 128t-138.5 53q-84 0 -137.5 -50
t-61.5 -131h398zM327 627l-117 -121h-24l104 121h37z" />
    <glyph glyph-name="egrave" unicode="&#xe8;" 
d="M487 240q0 -11 -1 -16.5t-7 -12.5h-420q0 -82 61.5 -137t142.5 -55q65 0 117.5 42.5t70.5 112.5h33q-16 -82 -79 -132t-144 -50q-107 0 -170.5 71t-63.5 158q0 105 74.5 167.5t149.5 62.5q96 0 166 -66t70 -145zM457 238q0 75 -60.5 128t-138.5 53q-84 0 -137.5 -50
t-61.5 -131h398zM323 502h-23l-120 121h41z" />
    <glyph glyph-name="ecircumflex" unicode="&#xea;" 
d="M487 240q0 -11 -1 -16.5t-7 -12.5h-420q0 -82 61.5 -137t142.5 -55q65 0 117.5 42.5t70.5 112.5h33q-16 -82 -79 -132t-144 -50q-107 0 -170.5 71t-63.5 158q0 105 74.5 167.5t149.5 62.5q96 0 166 -66t70 -145zM457 238q0 75 -60.5 128t-138.5 53q-84 0 -137.5 -50
t-61.5 -131h398zM393 508h-22l-111 94l-113 -94h-20l117 121h30z" />
    <glyph glyph-name="edieresis" unicode="&#xeb;" 
d="M487 240q0 -11 -1 -16.5t-7 -12.5h-420q0 -82 61.5 -137t142.5 -55q65 0 117.5 42.5t70.5 112.5h33q-16 -82 -79 -132t-144 -50q-107 0 -170.5 71t-63.5 158q0 105 74.5 167.5t149.5 62.5q96 0 166 -66t70 -145zM457 238q0 75 -60.5 128t-138.5 53q-84 0 -137.5 -50
t-61.5 -131h398zM367 538q0 -10 -6.5 -16.5t-16.5 -6.5t-17.5 6.5t-7.5 16.5q0 24 24 24t24 -24zM191 538q0 -10 -6.5 -16.5t-16.5 -6.5t-17.5 6.5t-7.5 16.5q0 24 24 24t24 -24z" />
    <glyph glyph-name="iacute" unicode="&#xed;" horiz-adv-x="148" 
d="M92 -2h-31v440h31v-440zM194 620l-117 -121h-24l104 121h37z" />
    <glyph glyph-name="igrave" unicode="&#xec;" horiz-adv-x="148" 
d="M92 -2h-31v440h31v-440zM100 502h-23l-120 121h41z" />
    <glyph glyph-name="icircumflex" unicode="&#xee;" horiz-adv-x="148" 
d="M92 -2h-31v440h31v-440zM209 503h-22l-111 94l-113 -94h-20l117 121h30z" />
    <glyph glyph-name="idieresis" unicode="&#xef;" horiz-adv-x="148" 
d="M92 -2h-31v440h31v-440zM187 537q0 -10 -6.5 -16.5t-16.5 -6.5t-17.5 6.5t-7.5 16.5q0 24 24 24t24 -24zM11 537q0 -10 -6.5 -16.5t-16.5 -6.5t-17.5 6.5t-7.5 16.5q0 24 24 24t24 -24z" />
    <glyph glyph-name="ntilde" unicode="&#xf1;" horiz-adv-x="424" 
d="M375 0h-29v277q0 52 -39 96.5t-94 44.5q-57 0 -96 -39t-39 -98v-281h-29v277q0 69 48.5 120.5t113.5 51.5q67 0 115.5 -46.5t48.5 -111.5v-291zM392 607q-16 -43 -37 -65.5t-55 -22.5q-24 0 -84 29.5t-93 29.5q-22 0 -39 -13.5t-23 -45.5l-31 13q11 41 38.5 62.5
t60.5 21.5q25 0 80.5 -27.5t81.5 -27.5t41 11.5t22 41.5z" />
    <glyph glyph-name="oacute" unicode="&#xf3;" 
d="M485 209q0 -95 -69 -162t-166 -67q-95 0 -163 69t-68 166q0 95 69.5 162.5t166.5 67.5q95 0 162.5 -69.5t67.5 -166.5zM455 212q0 84 -58.5 146t-141.5 62q-82 0 -143 -60t-61 -142q0 -87 57.5 -147.5t141.5 -60.5q88 0 146.5 58.5t58.5 143.5zM325 623l-117 -121h-24
l104 121h37z" />
    <glyph glyph-name="ograve" unicode="&#xf2;" 
d="M485 209q0 -95 -69 -162t-166 -67q-95 0 -163 69t-68 166q0 95 69.5 162.5t166.5 67.5q95 0 162.5 -69.5t67.5 -166.5zM455 212q0 84 -58.5 146t-141.5 62q-82 0 -143 -60t-61 -142q0 -87 57.5 -147.5t141.5 -60.5q88 0 146.5 58.5t58.5 143.5zM325 505h-23l-120 121h41z
" />
    <glyph glyph-name="ocircumflex" unicode="&#xf4;" 
d="M485 209q0 -95 -69 -162t-166 -67q-95 0 -163 69t-68 166q0 95 69.5 162.5t166.5 67.5q95 0 162.5 -69.5t67.5 -166.5zM455 212q0 84 -58.5 146t-141.5 62q-82 0 -143 -60t-61 -142q0 -87 57.5 -147.5t141.5 -60.5q88 0 146.5 58.5t58.5 143.5zM390 507h-22l-111 94
l-113 -94h-20l117 121h30z" />
    <glyph glyph-name="odieresis" unicode="&#xf6;" 
d="M485 209q0 -95 -69 -162t-166 -67q-95 0 -163 69t-68 166q0 95 69.5 162.5t166.5 67.5q95 0 162.5 -69.5t67.5 -166.5zM455 212q0 84 -58.5 146t-141.5 62q-82 0 -143 -60t-61 -142q0 -87 57.5 -147.5t141.5 -60.5q88 0 146.5 58.5t58.5 143.5zM365 538q0 -10 -6.5 -16.5
t-16.5 -6.5t-17.5 6.5t-7.5 16.5q0 24 24 24t24 -24zM189 538q0 -10 -6.5 -16.5t-16.5 -6.5t-17.5 6.5t-7.5 16.5q0 24 24 24t24 -24z" />
    <glyph glyph-name="otilde" unicode="&#xf5;" 
d="M485 209q0 -95 -69 -162t-166 -67q-95 0 -163 69t-68 166q0 95 69.5 162.5t166.5 67.5q95 0 162.5 -69.5t67.5 -166.5zM455 212q0 84 -58.5 146t-141.5 62q-82 0 -143 -60t-61 -142q0 -87 57.5 -147.5t141.5 -60.5q88 0 146.5 58.5t58.5 143.5zM443 603
q-16 -43 -37 -65.5t-55 -22.5q-24 0 -84 29.5t-93 29.5q-22 0 -39 -13.5t-23 -45.5l-31 13q11 41 38.5 62.5t60.5 21.5q25 0 80.5 -27.5t81.5 -27.5t41 11.5t22 41.5z" />
    <glyph glyph-name="uacute" unicode="&#xfa;" horiz-adv-x="424" 
d="M375 155q0 -65 -48 -114t-114 -49q-68 0 -117 45t-49 112v294h29v-294q0 -52 39 -89t96 -37q62 0 99.5 37.5t37.5 92.5v290h27v-288zM291 627l-117 -121h-24l104 121h37z" />
    <glyph glyph-name="ugrave" unicode="&#xf9;" horiz-adv-x="424" 
d="M375 155q0 -65 -48 -114t-114 -49q-68 0 -117 45t-49 112v294h29v-294q0 -52 39 -89t96 -37q62 0 99.5 37.5t37.5 92.5v290h27v-288zM290 501h-23l-120 121h41z" />
    <glyph glyph-name="ucircumflex" unicode="&#xfb;" horiz-adv-x="424" 
d="M375 155q0 -65 -48 -114t-114 -49q-68 0 -117 45t-49 112v294h29v-294q0 -52 39 -89t96 -37q62 0 99.5 37.5t37.5 92.5v290h27v-288zM346 505h-22l-111 94l-113 -94h-20l117 121h30z" />
    <glyph glyph-name="udieresis" unicode="&#xfc;" horiz-adv-x="424" 
d="M375 155q0 -65 -48 -114t-114 -49q-68 0 -117 45t-49 112v294h29v-294q0 -52 39 -89t96 -37q62 0 99.5 37.5t37.5 92.5v290h27v-288zM327 538q0 -10 -6.5 -16.5t-16.5 -6.5t-17.5 6.5t-7.5 16.5q0 24 24 24t24 -24zM151 538q0 -10 -6.5 -16.5t-16.5 -6.5t-17.5 6.5
t-7.5 16.5q0 24 24 24t24 -24z" />
    <glyph glyph-name="dagger" unicode="&#x2020;" horiz-adv-x="553" 
d="M500 439h-209v-599h-33v599h-207v28h207v236h33v-236h209v-28z" />
    <glyph glyph-name="degree" unicode="&#xb0;" horiz-adv-x="352" 
d="M278 579q0 -36 -33.5 -59t-79.5 -23q-48 0 -82.5 24.5t-34.5 61.5v74q0 40 33.5 64.5t82.5 24.5q46 0 80 -23.5t34 -59.5v-84zM254 586v71q0 26 -25.5 45.5t-58.5 19.5q-42 0 -69 -15.5t-27 -50.5v-67q0 -33 27 -52t66 -19q36 0 61.5 18.5t25.5 49.5z" />
    <glyph glyph-name="cent" unicode="&#xa2;" horiz-adv-x="313" 
d="M266 260h-39v-119h-28v119q-68 0 -114.5 50.5t-46.5 115.5q0 66 44 114t117 48v105h28v-105l39 -2v-30q-7 0 -24 4t-30 4q-62 0 -105 -36.5t-43 -103.5q0 -59 47.5 -99.5t102.5 -40.5l52 3v-27z" />
    <glyph glyph-name="sterling" unicode="&#xa3;" horiz-adv-x="609" 
d="M578 148q-6 -64 -46 -109t-98 -45q-14 0 -100 10t-178 21q-61 0 -129 -21l-4 25q73 17 130.5 60.5t57.5 113.5q0 32 -13.5 68t-36.5 72h-131v27h121q-14 32 -27.5 69t-13.5 60q0 79 58 138t141 59q77 0 134.5 -53t70.5 -131h-28q-11 66 -60 110t-111 44q-72 0 -124 -47.5
t-52 -98.5q0 -27 14.5 -69t30.5 -80h171v-27h-158q21 -49 32.5 -79t11.5 -58q0 -48 -23.5 -84t-69.5 -72q62 0 131.5 -10t143.5 -20q54 0 89 37t35 90h31z" />
    <glyph glyph-name="section" unicode="&#xa7;" horiz-adv-x="553" 
d="M488 212q0 -43 -33 -87t-78 -59q28 -29 43.5 -59t15.5 -63q0 -57 -44.5 -98.5t-115.5 -41.5q-82 0 -127 52.5t-45 123.5h33q0 -61 36.5 -102.5t102.5 -41.5q54 0 92 25t38 75q0 67 -90 135q-85 56 -169 112q-91 68 -91 135q0 42 32 81.5t78 59.5q-54 54 -54 125
q0 51 45 87.5t113 36.5q79 0 122.5 -50.5t43.5 -126.5h-30q3 12 3 25q0 54 -47.5 90t-105.5 36q-44 0 -79 -29.5t-35 -72.5q0 -77 89 -139q83 -50 167 -99q90 -60 90 -130zM456 216q0 23 -20.5 52t-54.5 50t-90.5 55.5t-95.5 56.5q-46 -8 -77.5 -40t-31.5 -74q0 -22 13 -46
t47 -48t97 -67t103 -69q46 13 78 49t32 81z" />
    <glyph glyph-name="bullet" unicode="&#x2022;" horiz-adv-x="390" 
d="M304 383q0 -40 -28 -67t-67 -27t-66.5 26.5t-27.5 67.5q0 39 27 67t67 28q39 0 67 -28t28 -67z" />
    <glyph glyph-name="paragraph" unicode="&#xb6;" horiz-adv-x="580" 
d="M448 630h-54v-723h-34v723h-54v-723h-43v384q-78 0 -129.5 49.5t-51.5 137.5q0 82 51 134t137 52h178v-34z" />
    <glyph glyph-name="germandbls" unicode="&#xdf;" horiz-adv-x="480" 
d="M440 193q0 -90 -48.5 -143.5t-128.5 -53.5q-24 0 -49.5 5t-49.5 13l18 23q38 -16 75 -16q67 0 111.5 48.5t44.5 115.5q0 86 -59 124.5t-159 38.5v29q81 0 134.5 35t53.5 107q0 63 -43 109t-103 46q-62 0 -110.5 -33t-48.5 -83v-558h-35v531q0 71 51.5 120.5t128.5 49.5
q80 0 134.5 -48.5t54.5 -128.5q0 -49 -23 -88t-67 -71q56 -20 87 -67.5t31 -104.5z" />
    <glyph glyph-name="registered" unicode="&#xae;" horiz-adv-x="802" 
d="M795 377q0 -165 -114 -279t-281 -114q-165 0 -279.5 114.5t-114.5 278.5q0 165 114.5 279.5t279.5 114.5q166 0 280.5 -114.5t114.5 -279.5zM765 377q0 153 -107 258t-258 105q-150 0 -256.5 -104.5t-106.5 -258.5q0 -152 107 -257t256 -105q151 0 258 105t107 257z
M564 139h-32l-197 239q-5 5 -5 13q0 12 13 12l77 4q51 0 79.5 33.5t28.5 80.5q0 42 -31 75t-71 33h-99v-490h-26v493q3 10 10 16.5t14 6.5h90q62 0 99.5 -39.5t37.5 -97.5q0 -50 -32.5 -89.5t-80.5 -43.5l-73 -6z" />
    <glyph glyph-name="copyright" unicode="&#xa9;" horiz-adv-x="802" 
d="M800 397q0 -165 -114 -279t-281 -114q-165 0 -279.5 114.5t-114.5 278.5q0 165 114.5 279.5t279.5 114.5q166 0 280.5 -114.5t114.5 -279.5zM770 397q0 153 -107 258t-258 105q-150 0 -256.5 -104.5t-106.5 -258.5q0 -152 107 -257t256 -105q151 0 258 105t107 257z
M489 174l-30 -1q-115 0 -185 59.5t-70 162.5q0 94 65 159t173 65h47v-31l-32 2q-100 0 -162 -51t-62 -138q0 -83 61 -141t156 -58h39v-28z" />
    <glyph glyph-name="trademark" unicode="&#x2122;" horiz-adv-x="705" 
d="M660 403h-18v336l-133 -335q-1 -4 -10 -4q-6 0 -8 3l-135 335v-335h-17v364q0 15 9 15q6 0 10.5 -3.5t6.5 -8.5l138 -342l130 342q5 12 13 12q14 0 14 -19v-360zM275 760h-93v-360h-18v359h-94v17h205v-16z" />
    <glyph glyph-name="acute" unicode="&#xb4;" horiz-adv-x="332" 
d="M260 621l-117 -121h-24l104 121h37z" />
    <glyph glyph-name="dieresis" unicode="&#xa8;" horiz-adv-x="364" 
d="M283 690q0 -10 -6.5 -16.5t-16.5 -6.5t-17.5 6.5t-7.5 16.5q0 24 24 24t24 -24zM107 690q0 -10 -6.5 -16.5t-16.5 -6.5t-17.5 6.5t-7.5 16.5q0 24 24 24t24 -24z" />
    <glyph glyph-name="AE" unicode="&#xc6;" horiz-adv-x="600" 
d="M573 6h-297l-13 23v142h-153l-55 -160h-31l218 686h331v-31h-277v-265h263v-32h-263v-331h277v-32zM263 202v455l-143 -455h143z" />
    <glyph glyph-name="Oslash" unicode="&#xd8;" horiz-adv-x="777" 
d="M732 356q0 -147 -101 -252t-247 -105q-142 0 -242 91l-74 -75h-30l88 90q-46 47 -73 110t-27 131q0 147 101.5 252.5t246.5 105.5q146 0 247 -96l62 63h35l-80 -80q43 -47 68.5 -108.5t25.5 -126.5zM702 356q0 60 -22.5 115t-62.5 98l-454 -458q91 -82 221 -82
q133 0 225.5 95.5t92.5 231.5zM600 586q-93 88 -226 88t-225.5 -96.5t-92.5 -231.5q0 -61 24.5 -118.5t66.5 -101.5z" />
    <glyph glyph-name="plusminus" unicode="&#xb1;" horiz-adv-x="490" 
d="M434 94h-378v40h170v177h-170v36h170v214h39v-214h164v-36h-166v-177h171v-40z" />
    <glyph glyph-name="yen" unicode="&#xa5;" horiz-adv-x="449" 
d="M430 688l-192 -401v-27h122v-29h-122v-41h122v-29h-122v-161h-35v161h-110v29h110v41h-110v29h110v27l-203 401h39l186 -358l170 358h35z" />
    <glyph glyph-name="mu" unicode="&#xb5;" horiz-adv-x="562" 
d="M536 445l-83 -352l43 14l-2 -43l-103 -41q-26 -10 -50.5 -15t-70.5 -5q-28 0 -66 12t-72 25q-16 -18 -32 -47.5t-29 -56.5l-31 1q16 21 37.5 96.5t25.5 89.5l88 322h36l-78 -298q-3 -11 -3 -20q0 -38 39.5 -62.5t83.5 -24.5q51 0 93.5 21t51.5 55l86 329h36z" />
    <glyph glyph-name="ordfeminine" unicode="&#xaa;" horiz-adv-x="305" 
d="M256 507h-17l1 43q-22 -23 -44 -38t-53 -15q-46 0 -79 35t-33 82q0 46 33 79t78 33t79.5 -33.5t34.5 -80.5v-105zM270 410h-240v25h240v-25zM234 613q0 36 -28 63t-63 27t-63 -27t-28 -63t27 -65t61 -29q35 0 64.5 28.5t29.5 65.5z" />
    <glyph glyph-name="ordmasculine" unicode="&#xba;" horiz-adv-x="320" 
d="M273 589q0 -47 -35 -81t-83 -34q-47 0 -81 35t-34 83q0 47 35 81t83 34q49 0 82 -35t33 -83zM285 410h-255v25h255v-25zM246 590q0 38 -25 65t-63 27q-37 0 -63 -26t-26 -63t25 -64t61 -27q38 0 64.5 25.5t26.5 62.5z" />
    <glyph glyph-name="ae" unicode="&#xe6;" horiz-adv-x="896" 
d="M886 247q0 -10 -1 -15.5t-7 -11.5h-420q0 -81 61 -136t141 -55q67 0 119.5 41.5t70.5 112.5h33q-16 -82 -79.5 -132t-144.5 -50q-70 0 -120.5 31.5t-81.5 84.5v-114h-25v111q-32 -55 -85.5 -86.5t-112.5 -31.5q-101 0 -161.5 68.5t-60.5 164.5q0 95 62.5 159.5
t156.5 64.5q70 0 127.5 -40.5t82.5 -105.5q14 54 78 103.5t131 49.5q100 0 168 -67t68 -146zM856 247q0 74 -60 127.5t-136 53.5q-87 0 -139.5 -48.5t-62.5 -132.5h398zM429 200l-3 30l2 24q-11 72 -66.5 120.5t-128.5 48.5q-82 0 -140 -57t-58 -140t56 -143t137 -60
q78 0 135 51t66 126z" />
    <glyph glyph-name="oslash" unicode="&#xf8;" 
d="M497 419l-61 -61q50 -63 50 -147q0 -95 -69 -162t-166 -67q-40 0 -75 12.5t-66 36.5l-32 -32l-44 2l52 52q-30 31 -48 74.5t-18 89.5q0 95 69.5 162.5t166.5 67.5q45 0 85.5 -17.5t73.5 -48.5l38 38h44zM393 360q-28 28 -62 42.5t-75 14.5q-82 0 -140 -57t-58 -140
q0 -40 13.5 -76t40.5 -65zM453 214q0 67 -39 122l-278 -279q25 -19 54 -29.5t61 -10.5q83 0 142.5 57.5t59.5 139.5z" />
    <glyph glyph-name="questiondown" unicode="&#xbf;" horiz-adv-x="496" 
d="M263 426q0 -11 -7.5 -19.5t-18.5 -8.5t-19.5 8.5t-8.5 19.5t8.5 18.5t19.5 7.5t18.5 -7.5t7.5 -18.5zM457 -45q0 -87 -64 -151t-148 -64q-90 0 -151 65t-61 152q0 80 51.5 132.5t136.5 70.5v177h35v-162l3 -11q0 -24 -59.5 -48.5t-96 -55t-36.5 -108.5q0 -73 49.5 -126.5
t122.5 -53.5q84 0 136.5 52.5t52.5 130.5h29z" />
    <glyph glyph-name="exclamdown" unicode="&#xa1;" horiz-adv-x="148" 
d="M91 414q0 -12 -8 -19t-20 -7t-19 8t-7 20t8 19t20 7t19 -8t7 -20zM76 -266h-31v600h31v-600z" />
    <glyph glyph-name="logicalnot" unicode="&#xac;" horiz-adv-x="2776" 
d="M2191 566q0 -61 -58.5 -197.5t-103 -214.5t-78.5 -120t-80 -42q-39 0 -78.5 25.5t-39.5 63.5q0 30 15.5 51t36.5 41q30 -37 47 -52t47 -15q81 0 142 130t61 222q0 54 -29.5 70.5t-84.5 16.5q-87 0 -95 -55t-19 -61l-13 34q1 7 1 23q0 12 -0.5 24.5t-0.5 26.5
q0 49 24 77.5t97 28.5q87 0 148 -13t61 -64zM2471 250q0 -143 -81 -209.5t-226 -66.5q-41 0 -91.5 13.5t-50.5 44.5q0 19 11.5 29.5t28.5 10.5q18 0 36 -10t27 -27q6 -15 22 -24.5t38 -14.5q113 0 171.5 60.5t58.5 183.5q3 29 3 62q0 147 -70.5 268t-229 141.5t-232 29
t-135.5 8.5q-55 0 -134 -12.5t-181 -29t-262 -125.5t-279 -253t-132 -257q21 -30 33.5 -65.5t12.5 -68.5q0 -23 -3.5 -37.5t-18.5 -14.5q-28 0 -44 48t-16 86v12q-61 50 -102.5 90.5t-45 69t-4.5 42.5t-1 32q0 19 3 34q-44 -38 -105 -83.5t-123.5 -80t-102.5 -34.5
q-18 0 -32 11t-14 29q0 50 25 126.5t48 107.5l64 88q10 12 14.5 18t6.5 12q-45 0 -67.5 20.5t-29.5 67.5q8 -2 14.5 -2h14.5q54 0 109.5 31t102.5 78q2 6 7 6q4 0 7.5 -12t3.5 -22q0 -78 -50 -117q-41 -27 -82 -53q-9 -17 -55.5 -81.5t-46.5 -113.5q0 -31 15 -77.5t36 -46.5
q33 0 112.5 55t143.5 100q28 66 50 120t45 82t33.5 37.5t28.5 9.5q11 0 19.5 -7.5t8.5 -19.5q0 -39 -32 -73.5t-77 -63.5q-7 -13 -20 -65.5t-13 -70.5q0 -23 31.5 -68.5t70.5 -96.5q26 124 141 262t260 238t268.5 125.5t215 38.5t194.5 13q76 0 156.5 -7t197 -26
t208.5 -134.5t92 -370.5zM1685 21q-6 -26 -46 -26q-11 0 -30 5t-32.5 20.5t-8.5 33.5q7 25 43 25q13 0 32 -5.5t33 -20t9 -32.5zM1663 285q0 -59 -39 -113t-137 -128.5t-273 -74.5q-91 0 -160 35.5t-69 117.5q0 51 36.5 91.5t89.5 54.5l3 -9q-39 -15 -61.5 -34.5
t-25.5 -57.5q0 -77 81 -104.5t182 -27.5q146 0 216.5 53t86.5 76t16 50q0 42 -33.5 53.5t-83.5 11.5q-29 0 -81 -4.5t-57 -4.5q-74 0 -126 33t-52 105q0 103 91.5 162t201.5 59q38 0 57 -4t36 -24q8 4 16 4q11 0 26.5 -28t19.5 -29.5t4 -8.5q-4 -12 -29.5 -40t-28.5 -33
q-3 -11 -10 -11t-20.5 12.5t-22.5 14.5t-18.5 5.5t-9.5 13.5q0 13 18 36t18 39q0 20 -18.5 28t-42.5 8q-81 0 -155.5 -41.5t-74.5 -117.5q0 -43 35.5 -58t84.5 -15q27 0 69.5 2.5t48.5 2.5q86 0 138.5 -17t52.5 -83zM982 15q-6 -27 -49 -27q-12 0 -30.5 4.5t-33 21.5
t-9.5 36q8 26 48 26q12 0 31 -5t33.5 -21.5t9.5 -34.5z" />
    <glyph glyph-name="florin" unicode="&#x192;" horiz-adv-x="285" 
d="M254 658q-48 0 -85.5 -28t-37.5 -70v-191h75v-33h-74v-332q0 -60 -40.5 -100.5t-99.5 -40.5h-18v29q47 0 86 32t39 77v335h-81v33h81v183q0 63 36 102t93 39l26 -3v-32z" />
    <glyph glyph-name="guillemotleft" unicode="&#xab;" horiz-adv-x="389" 
d="M328 70h-41l-117 149l117 148h41l-117 -148zM215 369l-121 -146l119 -149h-39l-119 149l119 146h41z" />
    <glyph glyph-name="guillemotright" unicode="&#xbb;" horiz-adv-x="389" 
d="M328 219l-119 -149h-39l117 147l-117 150h39zM215 221l-121 -147h-37l117 147l-119 148h39z" />
    <glyph glyph-name="ellipsis" unicode="&#x2026;" horiz-adv-x="388" 
d="M353 16q0 -11 -8 -18t-19 -7t-18 8t-7 19t8 18t19 7t18 -8t7 -19zM226 17q0 -10 -7 -18t-18 -8t-19 7t-8 19q0 11 7.5 18.5t18.5 7.5t18.5 -7.5t7.5 -18.5zM93 17q0 -11 -8 -18t-19 -7t-18 8t-7 19t8 18t19 7t18 -8t7 -19z" />
    <glyph glyph-name="nonbreakingspace" unicode="&#xa0;" horiz-adv-x="500" 
 />
    <glyph glyph-name="Agrave" unicode="&#xc0;" horiz-adv-x="496" 
d="M492 0h-31l-59 160h-316l-55 -160h-31l213 664q11 34 26 34q8 0 15.5 -7.5t13.5 -26.5zM393 191l-155 454l-142 -454h297zM304 739h-23l-120 121h41z" />
    <glyph glyph-name="Atilde" unicode="&#xc3;" horiz-adv-x="496" 
d="M492 0h-31l-59 160h-316l-55 -160h-31l213 664q11 34 26 34q8 0 15.5 -7.5t13.5 -26.5zM393 191l-155 454l-142 -454h297zM422 844q-16 -43 -37 -65.5t-55 -22.5q-24 0 -84 29.5t-93 29.5q-22 0 -39 -13.5t-23 -45.5l-31 13q11 41 38.5 62.5t60.5 21.5q25 0 80.5 -27.5
t81.5 -27.5t41 11.5t22 41.5z" />
    <glyph glyph-name="Otilde" unicode="&#xd5;" horiz-adv-x="777" 
d="M733 357q0 -147 -101 -252t-247 -105q-147 0 -252.5 100.5t-105.5 246.5q0 147 101.5 252.5t246.5 105.5q147 0 252.5 -101.5t105.5 -246.5zM703 357q0 133 -96.5 225.5t-231.5 92.5q-133 0 -225.5 -96.5t-92.5 -231.5q0 -132 96.5 -224.5t231.5 -92.5q133 0 225.5 95.5
t92.5 231.5zM559 843q-16 -43 -37 -65.5t-55 -22.5q-24 0 -84 29.5t-93 29.5q-22 0 -39 -13.5t-23 -45.5l-31 13q11 41 38.5 62.5t60.5 21.5q25 0 80.5 -27.5t81.5 -27.5t41 11.5t22 41.5z" />
    <glyph glyph-name="OE" unicode="&#x152;" horiz-adv-x="930" 
d="M900 -2h-306q-6 0 -11 8.5t-5 15.5v40q-43 -29 -93 -45.5t-103 -16.5q-147 0 -252.5 100.5t-105.5 246.5q0 147 101.5 252.5t246.5 105.5q117 0 206 -63v32q0 18 4 28t15 10h303v-32h-288v-274h273v-33h-273v-342h288v-33zM578 100v505q-87 70 -206 70
q-133 0 -225.5 -96.5t-92.5 -231.5q0 -132 96.5 -224.5t231.5 -92.5q53 0 103 18.5t93 51.5z" />
    <glyph glyph-name="oe" unicode="&#x153;" horiz-adv-x="950" 
d="M914 245q0 -19 -9 -29h-420q0 -81 60 -136t144 -55q65 0 117.5 42.5t70.5 111.5h33q-16 -83 -79 -132.5t-144 -49.5q-77 0 -133.5 39.5t-83.5 104.5q-25 -68 -84.5 -109.5t-135.5 -41.5q-95 0 -163 69t-68 166q0 95 69.5 162.5t166.5 67.5q72 0 130.5 -41.5t83.5 -107.5
q21 66 85.5 108t121.5 42q103 0 170.5 -68.5t67.5 -142.5zM883 243q0 74 -60 127.5t-136 53.5q-86 0 -137.5 -47.5t-64.5 -133.5h398zM452 222q0 84 -57.5 143.5t-139.5 59.5t-140 -57t-58 -140t56 -143t137 -60q83 0 142.5 57.5t59.5 139.5z" />
    <glyph glyph-name="endash" unicode="&#x2013;" horiz-adv-x="545" 
d="M520 201h-522v29h522v-29z" />
    <glyph glyph-name="emdash" unicode="&#x2014;" horiz-adv-x="1015" 
d="M992 201h-998h-4v29h998h4v-29z" />
    <glyph glyph-name="quotedblleft" unicode="&#x201c;" horiz-adv-x="205" 
d="M166 701l-28 -82q20 -7 20 -25q0 -21 -22 -23q-8 0 -17 5.5t-9 28.5q0 10 3 16l41 80h12zM94 701l-28 -82q9 -3 14.5 -9.5t5.5 -14.5q0 -10 -7 -17t-16 -7q-14 0 -19.5 10t-5.5 24q0 10 3 16l41 80h12z" />
    <glyph glyph-name="quotedblright" unicode="&#x201d;" horiz-adv-x="205" 
d="M177 657q0 -17 -4 -25l-37 -70l-18 2l27 70q-16 13 -16 32q0 9 7.5 16.5t18.5 7.5t16.5 -10.5t5.5 -22.5zM103 653q0 -13 -6 -25l-35 -69h-18l27 75q-14 11 -14 30q0 23 24 23q10 0 16 -11t6 -23z" />
    <glyph glyph-name="quoteleft" unicode="&#x2018;" horiz-adv-x="129" 
d="M96 694l-30 -80q9 -3 14.5 -8.5t5.5 -14.5q0 -24 -27 -24q-11 0 -16.5 10.5t-5.5 23.5q0 17 4 25l37 70z" />
    <glyph glyph-name="quoteright" unicode="&#x2019;" horiz-adv-x="129" 
d="M100 669q0 -17 -4 -25l-37 -70l-18 2l27 70q-16 13 -16 32q0 9 7.5 16.5t18.5 7.5t16.5 -10.5t5.5 -22.5z" />
    <glyph glyph-name="divide" unicode="&#xf7;" horiz-adv-x="360" 
d="M209 349q0 -12 -8 -19t-20 -7t-20 8t-8 20q0 11 9 19t20 8t19 -9t8 -20zM329 235h-293v44h293v-44zM209 156q0 -12 -8 -19t-20 -7t-20 8t-8 20q0 11 9 19t20 8t19 -9t8 -20z" />
    <glyph glyph-name="ydieresis" unicode="&#xff;" horiz-adv-x="445" 
d="M387 -88q0 -75 -54 -124t-127 -49q-77 0 -126 49t-49 124h33q0 -61 39.5 -102.5t104.5 -41.5q56 0 101 39t45 94v160q-30 -31 -67.5 -49t-76.5 -18q-60 0 -108.5 43.5t-48.5 111.5v292h31v-279q0 -58 40.5 -98.5t96.5 -40.5q58 0 96 40t38 95v283h32v-529zM330 537
q0 -10 -6.5 -16.5t-16.5 -6.5t-17.5 6.5t-7.5 16.5q0 24 24 24t24 -24zM154 537q0 -10 -6.5 -16.5t-16.5 -6.5t-17.5 6.5t-7.5 16.5q0 24 24 24t24 -24z" />
    <glyph glyph-name="Ydieresis" unicode="&#x178;" horiz-adv-x="449" 
d="M430 688l-192 -401v-287h-35v287l-203 401h39l186 -358l170 358h35zM337 777q0 -10 -6.5 -16.5t-16.5 -6.5t-17.5 6.5t-7.5 16.5q0 24 24 24t24 -24zM161 777q0 -10 -6.5 -16.5t-16.5 -6.5t-17.5 6.5t-7.5 16.5q0 24 24 24t24 -24z" />
    <glyph glyph-name="fraction" unicode="&#x2215;" horiz-adv-x="632" 
d="M564 728l-472 -696h-48l474 696h46z" />
    <glyph glyph-name="currency" unicode="&#xa4;" horiz-adv-x="688" 
d="M638 153l-60 -65l-67 66q-65 -54 -165 -54q-103 0 -169 55l-66 -66l-62 63l66 66q-50 66 -50 160q0 49 12.5 92.5t37.5 73.5l-66 67l62 63l67 -67q68 52 168 52q98 0 161 -52l67 67l62 -62l-62 -63q25 -33 39.5 -78t14.5 -91t-15 -89t-41 -72zM572 374q0 96 -64.5 163.5
t-161.5 67.5t-161.5 -67.5t-64.5 -163.5q0 -98 64 -157t162 -59t162 59t64 157z" />
    <glyph glyph-name="guilsinglleft" unicode="&#x2039;" horiz-adv-x="290" 
d="M215 369l-121 -146l119 -149h-39l-119 149l119 146h41z" />
    <glyph glyph-name="guilsinglright" unicode="&#x203a;" horiz-adv-x="290" 
d="M253 223l-119 -149h-39l119 149l-121 146h41z" />
    <glyph glyph-name="fi" unicode="&#xf001;" horiz-adv-x="270" 
d="M222 -2h-31v406h-99v-414h-33v555q0 58 40 98t98 40h18v-29q-49 0 -86 -26.5t-37 -71.5v-119l130 1v-440z" />
    <glyph glyph-name="fl" unicode="&#xf002;" horiz-adv-x="315" 
d="M272 -5h-31v682h31v-682zM219 414h-127v-414h-33v555q0 58 40 98t98 40h18v-29q-48 0 -85.5 -28t-37.5 -70v-119h127v-33z" />
    <glyph glyph-name="daggerdbl" unicode="&#x2021;" horiz-adv-x="553" 
d="M500 447h-209v-353h205v-28h-205v-228h-33v228h-209v28h209v353h-209v26h209v230h33v-230h209v-26z" />
    <glyph glyph-name="periodcentered" unicode="&#xb7;" horiz-adv-x="148" 
d="M103 349q0 -12 -8 -19t-20 -7t-20 8t-8 20q0 11 9 19t20 8t19 -9t8 -20z" />
    <glyph glyph-name="periodcentered" unicode="&#x2219;" horiz-adv-x="148" 
d="M103 349q0 -12 -8 -19t-20 -7t-20 8t-8 20q0 11 9 19t20 8t19 -9t8 -20z" />
    <glyph glyph-name="quotesinglbase" unicode="&#x201a;" horiz-adv-x="1000" 
d="M96 24q0 -18 -3 -24l-37 -70l-18 2l27 70q-17 14 -17 31q0 13 8.5 19t17.5 6q10 0 16 -11t6 -23z" />
    <glyph glyph-name="quotedblbase" unicode="&#x201e;" horiz-adv-x="1000" 
d="M161 25q0 -17 -4 -25l-37 -70l-18 2l27 70q-16 13 -16 32q0 9 7.5 16.5t18.5 7.5t16.5 -10.5t5.5 -22.5zM87 21q0 -13 -6 -25l-35 -69h-18l27 75q-14 11 -14 30q0 23 24 23q10 0 16 -11t6 -23z" />
    <glyph glyph-name="perthousand" unicode="&#x2030;" horiz-adv-x="1172" 
d="M1106 140q0 -62 -44.5 -104.5t-107.5 -42.5q-62 0 -105 45t-43 108q0 62 44.5 104.5t108.5 42.5q62 0 104.5 -44.5t42.5 -108.5zM362 540q0 -59 -47 -98t-111 -39q-59 0 -98.5 47t-39.5 110q0 59 47.5 98.5t110.5 39.5q59 0 98.5 -47.5t39.5 -110.5zM649 708l-450 -709
h-31l447 709h34zM751 140q0 -62 -44.5 -104.5t-107.5 -42.5q-62 0 -105 45t-43 108q0 62 44.5 104.5t108.5 42.5q62 0 104.5 -44.5t42.5 -108.5zM1074 144q0 48 -35 82t-85 34q-48 0 -82 -35t-34 -85q0 -48 35.5 -81.5t85.5 -33.5q47 0 81 35t34 84zM333 547q0 51 -34 87
t-83 36q-51 0 -87 -34t-36 -83q0 -50 34.5 -86.5t83.5 -36.5q51 0 86.5 33.5t35.5 83.5zM719 144q0 48 -35 82t-85 34q-48 0 -82 -35t-34 -85q0 -48 35.5 -81.5t85.5 -33.5q47 0 81 35t34 84z" />
    <glyph glyph-name="Acircumflex" unicode="&#xc2;" horiz-adv-x="496" 
d="M492 0h-31l-59 160h-316l-55 -160h-31l213 664q11 34 26 34q8 0 15.5 -7.5t13.5 -26.5zM393 191l-155 454l-142 -454h297zM371 744h-22l-111 94l-113 -94h-20l117 121h30z" />
    <glyph glyph-name="Ecircumflex" unicode="&#xca;" horiz-adv-x="404" 
d="M369 0h-297q-5 0 -9 7.5t-4 15.5v631q0 14 4 25.5t13 11.5h293v-31h-277v-265h263v-32h-263v-331h277v-32zM350 743h-22l-111 94l-113 -94h-20l117 121h30z" />
    <glyph glyph-name="Aacute" unicode="&#xc1;" horiz-adv-x="496" 
d="M492 0h-31l-59 160h-316l-55 -160h-31l213 664q11 34 26 34q8 0 15.5 -7.5t13.5 -26.5zM393 191l-155 454l-142 -454h297zM313 860l-117 -121h-24l104 121h37z" />
    <glyph glyph-name="Edieresis" unicode="&#xcb;" horiz-adv-x="404" 
d="M369 0h-297q-5 0 -9 7.5t-4 15.5v631q0 14 4 25.5t13 11.5h293v-31h-277v-265h263v-32h-263v-331h277v-32zM335 776q0 -10 -6.5 -16.5t-16.5 -6.5t-17.5 6.5t-7.5 16.5q0 24 24 24t24 -24zM159 776q0 -10 -6.5 -16.5t-16.5 -6.5t-17.5 6.5t-7.5 16.5q0 24 24 24t24 -24z
" />
    <glyph glyph-name="Egrave" unicode="&#xc8;" horiz-adv-x="404" 
d="M369 0h-297q-5 0 -9 7.5t-4 15.5v631q0 14 4 25.5t13 11.5h293v-31h-277v-265h263v-32h-263v-331h277v-32zM296 744h-23l-120 121h41z" />
    <glyph glyph-name="Iacute" unicode="&#xcd;" horiz-adv-x="164" 
d="M100 0h-32v693h32v-693zM205 865l-117 -121h-24l104 121h37z" />
    <glyph glyph-name="Icircumflex" unicode="&#xce;" horiz-adv-x="164" 
d="M100 0h-32v693h32v-693zM217 746h-22l-111 94l-113 -94h-20l117 121h30z" />
    <glyph glyph-name="Idieresis" unicode="&#xcf;" horiz-adv-x="164" 
d="M100 0h-32v693h32v-693zM193 776q0 -10 -6.5 -16.5t-16.5 -6.5t-17.5 6.5t-7.5 16.5q0 24 24 24t24 -24zM17 776q0 -10 -6.5 -16.5t-16.5 -6.5t-17.5 6.5t-7.5 16.5q0 24 24 24t24 -24z" />
    <glyph glyph-name="Igrave" unicode="&#xcc;" horiz-adv-x="164" 
d="M100 0h-32v693h32v-693zM94 745h-23l-120 121h41z" />
    <glyph glyph-name="Oacute" unicode="&#xd3;" horiz-adv-x="777" 
d="M733 357q0 -147 -101 -252t-247 -105q-147 0 -252.5 100.5t-105.5 246.5q0 147 101.5 252.5t246.5 105.5q147 0 252.5 -101.5t105.5 -246.5zM703 357q0 133 -96.5 225.5t-231.5 92.5q-133 0 -225.5 -96.5t-92.5 -231.5q0 -132 96.5 -224.5t231.5 -92.5q133 0 225.5 95.5
t92.5 231.5zM446 864l-117 -121h-24l104 121h37z" />
    <glyph glyph-name="Ocircumflex" unicode="&#xd4;" horiz-adv-x="777" 
d="M733 357q0 -147 -101 -252t-247 -105q-147 0 -252.5 100.5t-105.5 246.5q0 147 101.5 252.5t246.5 105.5q147 0 252.5 -101.5t105.5 -246.5zM703 357q0 133 -96.5 225.5t-231.5 92.5q-133 0 -225.5 -96.5t-92.5 -231.5q0 -132 96.5 -224.5t231.5 -92.5q133 0 225.5 95.5
t92.5 231.5zM515 745h-22l-111 94l-113 -94h-20l117 121h30z" />
    <glyph glyph-name="Ograve" unicode="&#xd2;" horiz-adv-x="777" 
d="M733 357q0 -147 -101 -252t-247 -105q-147 0 -252.5 100.5t-105.5 246.5q0 147 101.5 252.5t246.5 105.5q147 0 252.5 -101.5t105.5 -246.5zM703 357q0 133 -96.5 225.5t-231.5 92.5q-133 0 -225.5 -96.5t-92.5 -231.5q0 -132 96.5 -224.5t231.5 -92.5q133 0 225.5 95.5
t92.5 231.5zM447 742h-23l-120 121h41z" />
    <glyph glyph-name="Uacute" unicode="&#xda;" horiz-adv-x="572" 
d="M512 207q0 -79 -66.5 -149t-158.5 -70q-95 0 -163.5 64.5t-68.5 155.5v483h31v-481q0 -89 60.5 -139t141.5 -50t135 52t54 136v482h35v-484zM353 862l-117 -121h-24l104 121h37z" />
    <glyph glyph-name="Ucircumflex" unicode="&#xdb;" horiz-adv-x="572" 
d="M512 207q0 -79 -66.5 -149t-158.5 -70q-95 0 -163.5 64.5t-68.5 155.5v483h31v-481q0 -89 60.5 -139t141.5 -50t135 52t54 136v482h35v-484zM412 743h-22l-111 94l-113 -94h-20l117 121h30z" />
    <glyph glyph-name="Ugrave" unicode="&#xd9;" horiz-adv-x="572" 
d="M512 207q0 -79 -66.5 -149t-158.5 -70q-95 0 -163.5 64.5t-68.5 155.5v483h31v-481q0 -89 60.5 -139t141.5 -50t135 52t54 136v482h35v-484zM356 744h-23l-120 121h41z" />
    <glyph glyph-name="dotlessi" unicode="&#x131;" horiz-adv-x="148" 
d="M92 -2h-31v440h31v-440z" />
    <glyph glyph-name="circumflex" unicode="&#x2c6;" horiz-adv-x="332" 
d="M297 500h-22l-111 94l-113 -94h-20l117 121h30z" />
    <glyph glyph-name="tilde" unicode="&#x2dc;" horiz-adv-x="400" 
d="M386 719q-16 -43 -37 -65.5t-55 -22.5q-24 0 -84 29.5t-93 29.5q-22 0 -39 -13.5t-23 -45.5l-31 13q11 41 38.5 62.5t60.5 21.5q25 0 80.5 -27.5t81.5 -27.5t41 11.5t22 41.5z" />
    <glyph glyph-name="macron" unicode="&#xaf;" horiz-adv-x="430" 
d="M364 509h-312v30h312v-30z" />
    <glyph glyph-name="macron" unicode="&#x2c9;" horiz-adv-x="430" 
d="M364 509h-312v30h312v-30z" />
    <glyph glyph-name="breve" unicode="&#x2d8;" horiz-adv-x="545" 
d="M474 580q-29 -73 -84 -116.5t-120 -43.5q-82 0 -136 53.5t-72 101.5h58q22 -44 64 -74.5t86 -30.5q46 0 84 30t60 80h60z" />
    <glyph glyph-name="dotaccent" unicode="&#x2d9;" horiz-adv-x="148" 
d="M95 578q0 -23 -24 -23q-10 0 -17 7t-7 18q0 10 7.5 16.5t17.5 6.5t16.5 -7.5t6.5 -17.5z" />
    <glyph glyph-name="ring" unicode="&#x2da;" horiz-adv-x="310" 
d="M224 646q0 -36 -20 -61.5t-55 -25.5q-34 0 -54.5 25.5t-20.5 61.5q0 37 20 62t55 25q34 0 54.5 -25.5t20.5 -61.5zM192 646q0 24 -10 41t-33 17q-21 0 -32 -17.5t-11 -40.5q0 -24 10 -41t33 -17q21 0 32 17.5t11 40.5z" />
    <glyph glyph-name="cedilla" unicode="&#xb8;" horiz-adv-x="388" 
d="M249 -105q0 -29 -22.5 -48.5t-42.5 -19.5q-12 0 -38.5 7t-42.5 13l14 30q13 -7 25.5 -13t22.5 -6q14 0 27 13t13 24q0 8 -5.5 13t-45.5 31l50 78l28 -12l-24 -41q-3 -6 -3 -11q0 -9 22 -26t22 -32z" />
    <glyph glyph-name="hungarumlaut" unicode="&#x2ba;" horiz-adv-x="405" 
d="M341 690l-88 -158l-32 -20l51 207q2 10 15 20t24 10q14 0 24 -13t10 -29q0 -10 -4 -17zM206 700l-88 -158l-32 -20l51 207q2 11 15 21t25 10q13 0 23 -13.5t10 -29.5q0 -10 -4 -17z" />
    <glyph glyph-name="caron" unicode="&#x2c7;" horiz-adv-x="320" 
d="M293 748l-119 -121h-30l-117 121h20l113 -94l111 94h22z" />
    <glyph glyph-name="Lslash" unicode="&#x141;" horiz-adv-x="389" 
d="M373 -4h-289q-12 4 -16.5 12.5t-4.5 18.5v334l-30 -14v33l30 14v295h35v-279l50 24v-32l-50 -24v-353h275v-29z" />
    <glyph glyph-name="lslash" unicode="&#x142;" horiz-adv-x="164" 
d="M157 418v-34l-53 -38v-350h-32v326l-60 -43v35l60 43v332h32v-309z" />
    <glyph glyph-name="Scaron" unicode="&#x160;" horiz-adv-x="424" 
d="M388 174q0 -83 -57.5 -131t-139.5 -48q-42 0 -83 12t-85 36v39q35 -24 79.5 -39.5t85.5 -15.5q70 0 117 38t47 117q0 82 -82 125q-77 34 -154 69q-83 51 -83 150q0 69 53 123t130 54q42 0 81 -13t84 -38v-33q-41 22 -81.5 35t-78.5 13q-63 0 -109.5 -39.5t-46.5 -99.5
q0 -88 83 -132l156 -70q84 -51 84 -152zM353 864l-119 -121h-30l-117 121h20l113 -94l111 94h22z" />
    <glyph glyph-name="scaron" unicode="&#x161;" horiz-adv-x="297" 
d="M266 416l-2 -31q-37 19 -60.5 28t-55.5 9q-40 0 -64 -28t-24 -67q0 -50 102.5 -88t102.5 -120q0 -63 -39.5 -96.5t-95.5 -33.5q-60 0 -107 38l2 34q32 -26 51 -36t57 -10q44 0 74.5 24t30.5 75q0 70 -103.5 106t-103.5 106q0 48 32.5 85.5t82.5 37.5q31 0 59.5 -8.5
t60.5 -24.5zM281 622l-119 -121h-30l-117 121h20l113 -94l111 94h22z" />
    <glyph glyph-name="Zcaron" unicode="&#x17d;" horiz-adv-x="445" 
d="M424 668l-373 -637h371v-31h-387q-22 0 -22 20q0 13 8 27l362 613h-363v31h394q14 0 14 -12q0 -3 -4 -11zM366 862l-119 -121h-30l-117 121h20l113 -94l111 94h22z" />
    <glyph glyph-name="zcaron" unicode="&#x17f;" horiz-adv-x="332" 
d="M314 0h-284q-5 0 -9 6t-4 12q0 5 10 19l248 375h-254v29h280q11 0 13 -13q3 -9 -3 -18l-252 -379h255v-31zM298 628l-119 -121h-30l-117 121h20l113 -94l111 94h22z" />
    <glyph glyph-name="brokenbar" unicode="&#xa6;" horiz-adv-x="280" 
d="M139 440h-27v223h27v-223zM140 66h-27v223h27v-223z" />
    <glyph glyph-name="Eth" unicode="&#xd0;" 
d="M480 334q0 -142 -105 -238.5t-229 -96.5h-74l-9 23v327h-41v20h41v298q0 13 11.5 20t27.5 7q141 0 259.5 -86.5t118.5 -273.5zM450 329q0 135 -89 231.5t-238 96.5h-31v-288h67v-20h-67v-323l41 -3q123 0 220 93t97 213z" />
    <glyph glyph-name="eth" unicode="&#xf0;" horiz-adv-x="552" 
d="M497 213q0 -91 -61.5 -155.5t-161.5 -64.5q-96 0 -156.5 65.5t-60.5 158.5q0 89 64 152t157 63q53 0 112 -28l-92 160l-121 -69q-3 -2 -10 -2q-9 0 -11 6q-3 11 12 21l116 67l-61 106h38l51 -91l118 68q5 4 15 4q11 0 13 -7q0 -13 -15 -21l-118 -67l147 -261
q13 -22 19 -50.5t6 -54.5zM466 210q0 79 -54.5 134.5t-131.5 55.5q-78 0 -134.5 -58.5t-56.5 -132.5t50.5 -131t132.5 -57q78 0 136 53t58 136z" />
    <glyph glyph-name="Yacute" unicode="&#xdd;" horiz-adv-x="449" 
d="M430 688l-192 -401v-287h-35v287l-203 401h39l186 -358l170 358h35zM304 864l-117 -121h-24l104 121h37z" />
    <glyph glyph-name="yacute" unicode="&#xfd;" horiz-adv-x="445" 
d="M387 -88q0 -75 -54 -124t-127 -49q-77 0 -126 49t-49 124h33q0 -61 39.5 -102.5t104.5 -41.5q56 0 101 39t45 94v160q-30 -31 -67.5 -49t-76.5 -18q-60 0 -108.5 43.5t-48.5 111.5v292h31v-279q0 -58 40.5 -98.5t96.5 -40.5q58 0 96 40t38 95v283h32v-529zM298 623
l-117 -121h-24l104 121h37z" />
    <glyph glyph-name="Thorn" unicode="&#xde;" horiz-adv-x="537" 
d="M509 421q0 -95 -64.5 -163.5t-164.5 -68.5q-60 0 -110 28.5t-89 82.5v-349h-32v782h30v-209q30 54 84 87.5t117 33.5q97 0 163 -65t66 -159zM482 412q0 84 -57.5 143.5t-139.5 59.5t-140 -57t-58 -140t56 -143t137 -60q83 0 142.5 56.5t59.5 140.5z" />
    <glyph glyph-name="thorn" unicode="&#xfe;" horiz-adv-x="537" 
d="M504 220q0 -94 -67 -161t-167 -67q-57 0 -106.5 29.5t-87.5 83.5v-349h-32v782h30v-209q29 52 78.5 86t107.5 34q111 0 177.5 -63.5t66.5 -165.5zM477 217q0 84 -57.5 143.5t-139.5 59.5t-140 -57t-58 -140t56 -143t137 -60q83 0 142.5 57.5t59.5 139.5z" />
    <glyph glyph-name="minus" unicode="&#x2212;" horiz-adv-x="675" 
d="M489 173h-446v34h446v-34z" />
    <glyph glyph-name="multiply" unicode="&#xd7;" horiz-adv-x="624" 
d="M442 168l-26 -27l-122 123l-121 -121l-25 26l120 120l-119 123l27 28l120 -123l116 116l25 -26l-117 -117z" />
    <glyph glyph-name="onesuperior" unicode="&#xb9;" horiz-adv-x="1000" 
d="M70 361h-16v331h-24v16h32q2 0 4.5 -3t3.5 -4v-340z" />
    <glyph glyph-name="twosuperior" unicode="&#xb2;" horiz-adv-x="496" 
d="M237 634q0 -40 -21 -63l-158 -169h178v-15h-190q-10 0 -10 8q0 5 5 10l157 167q12 12 18 29t6 32q0 37 -24 61t-58 24q-38 0 -63 -25t-25 -59h-15q5 45 32.5 72.5t66.5 27.5q40 0 70.5 -28.5t30.5 -71.5z" />
    <glyph glyph-name="threesuperior" unicode="&#xb3;" horiz-adv-x="461" 
d="M210 487q0 -41 -27 -69t-72 -28t-70 28t-25 69h15q0 -33 24 -58t56 -25q38 0 61 24t23 60q0 41 -30 62.5t-62 21.5q-2 8 -1 12q33 0 58 24t25 55q0 25 -22 46t-51 21t-51 -22t-22 -51h-15q0 34 24.5 61.5t57.5 27.5q42 0 68 -26t26 -65q0 -26 -13.5 -45.5t-38.5 -32.5
q30 -9 46 -33.5t16 -56.5z" />
    <glyph glyph-name="onehalf" unicode="&#xbd;" horiz-adv-x="632" 
d="M564 728l-472 -696h-48l474 696h46zM572 248q0 -40 -21 -63l-158 -169h178v-15h-190q-10 0 -10 8q0 5 5 10l157 167q12 12 18 29t6 32q0 37 -24 61t-58 24q-38 0 -63 -25t-25 -59h-15q5 45 32.5 72.5t66.5 27.5q40 0 70.5 -28.5t30.5 -71.5zM70 361h-16v331h-24v16h32
q2 0 4.5 -3t3.5 -4v-340z" />
    <glyph glyph-name="onequarter" unicode="&#xbc;" horiz-adv-x="632" 
d="M564 728l-472 -696h-48l474 696h46zM70 361h-16v331h-24v16h32q2 0 4.5 -3t3.5 -4v-340zM546 0h-17v111h-165q-6 2 -8 7q-1 8 3 16l150 235h19l-153 -242h154v242h17v-369z" />
    <glyph glyph-name="threequarters" unicode="&#xbe;" horiz-adv-x="632" 
d="M564 728l-472 -696h-48l474 696h46zM545 0h-17v108h-160q-5 2 -7 7q-2 7 3 15l145 229h18l-148 -235h149v235h17v-359zM210 487q0 -41 -27 -69t-72 -28t-70 28t-25 69h15q0 -33 24 -58t56 -25q38 0 61 24t23 60q0 41 -30 62.5t-62 21.5q-2 8 -1 12q33 0 58 24t25 55
q0 25 -22 46t-51 21t-51 -22t-22 -51h-15q0 34 24.5 61.5t57.5 27.5q42 0 68 -26t26 -65q0 -26 -13.5 -45.5t-38.5 -32.5q30 -9 46 -33.5t16 -56.5z" />
    </font>
</defs>
</svg>
