<?xml version="1.0" encoding="UTF-8"?>
<svg width="200px" height="40px" viewBox="0 0 200 40" version="1.1" xmlns="http://www.w3.org/2000/svg" xmlns:xlink="http://www.w3.org/1999/xlink">
    <!-- Generator: Sketch 46.2 (44496) - http://www.bohemiancoding.com/sketch -->
    <title>Artboard 6 Copy</title>
    <desc>Created with Sketch.</desc>
    <defs></defs>
    <g id="Page-1" stroke="none" stroke-width="1" fill="none" fill-rule="evenodd">
        <g id="Artboard-6-Copy">
            <g id="Group-4" transform="translate(1.000000, -20.000000)" fill="#000000">
                <g id="Group-2" transform="translate(0.000000, 22.062818)">
                    <g id="Group">
                        <path d="M29.5486201,11.6983693 C28.9842357,12.5090433 28.4652253,13.0036315 27.6534164,13.0036315 C25.5910738,13.0036315 24.8438163,11.1305603 25.3138207,9.667017 C25.743914,8.32775278 27.3190956,7.44353545 29.1415502,8.62866608 C30.5736257,8.02840126 32.0751273,7.34677395 33.4614936,6.73006352 C32.0238123,3.15444138 29.834949,-0.505572717 24.6693867,0.235345355 C16.3205721,1.43371109 13.6172655,12.3107519 19.0359528,17.9039909 C24.0919856,23.1233086 33.3799934,19.3429819 33.821992,11.634318 C32.3204904,11.634318 30.9147192,11.7070249 29.5486201,11.6983693 Z" id="Fill-3"></path>
                        <path d="M29.0369159,9.27835429 C28.4022553,9.5323957 26.9915153,9.97599443 27.1303473,10.6117471 C27.3351461,11.5521765 30.7067802,11.1695996 31.5673661,11.1328134 C33.3756312,11.0562114 34.5367323,11.0189924 36.0703515,10.9739834 L36.0703515,6.16630555" id="Fill-5"></path>
                        <path d="M31.5926373,18.9311492 C29.5831607,20.1412 27.4158583,21.670209 23.8475281,21.3274479 C20.036422,20.9608838 16.1852127,19.5331451 12.2417227,18.6169514 C12.2417227,22.4639262 12.228355,26.5493623 12.228355,30.3976353 C18.6992146,32.501808 25.0066425,34.7708696 31.5943622,36.7577592 C31.6422274,31.2454499 31.7056164,24.089445 31.5926373,18.9311492" id="Fill-7"></path>
                        <path d="M18.6923151,19.1090647 C18.6923151,19.1090647 14.1929849,15.6918398 14.9588283,8.72279557 C15.1416648,7.05140211 16.5815022,2.29299429 20.9148134,0.0620172662 L5.01580017,0.730661203 C5.01580017,0.730661203 0.633761317,2.85214507 0.218498237,7.40887777 C0.218498237,7.40887777 -0.75734844,12.8657913 5.01580017,15.2279004 L18.6923151,19.1090647 Z" id="Fill-9"></path>
                    </g>
                </g>
                <path d="M64.9704794,35.263388 C64.9704794,38.516923 63.7889502,41.2909482 61.4258563,43.5855466 C59.0627624,45.880145 56.2202428,47.027427 52.8982123,47.027427 C49.6446772,47.027427 46.8535285,45.8458978 44.5246824,43.4828039 C42.1958362,41.11971 41.0314306,38.2771904 41.0314306,34.9551599 C41.0314306,31.7016248 42.2215216,28.9190379 44.6017394,26.6073156 C46.9819571,24.2955933 49.8330385,23.1397495 53.155069,23.1397495 C56.4086041,23.1397495 59.191191,24.3298406 61.5029133,26.7100583 C63.8146356,29.0902761 64.9704794,31.9413575 64.9704794,35.263388 Z M63.4293389,35.1092739 C63.4293389,32.232464 62.4276076,29.7324167 60.424115,27.6090569 C58.4206223,25.4856972 55.9976313,24.4240333 53.155069,24.4240333 C50.3467546,24.4240333 47.8980781,25.45145 45.8089661,27.5063142 C43.7198541,29.5611785 42.6753138,31.9927314 42.6753138,34.8010458 C42.6753138,37.780599 43.6599215,40.3063318 45.6291664,42.3783199 C47.5984113,44.450308 50.0214024,45.4862865 52.8982123,45.4862865 C55.9120132,45.4862865 58.4206223,44.4845552 60.424115,42.4810626 C62.4276076,40.4775699 63.4293389,38.0203316 63.4293389,35.1092739 Z M91.337992,34.6983031 C91.337992,38.0203337 90.1650246,40.7943588 87.8190546,43.0204617 C85.4730846,45.2465647 82.7247448,46.3595994 79.573953,46.3595994 C77.5190888,46.3595994 75.6269296,45.8715765 73.8974189,44.895516 C72.1679082,43.9194555 70.6353449,42.4896339 69.2996831,40.6060083 L69.2996831,58.5346092 L67.809914,58.5346092 L67.809914,33.7736189 C67.809914,31.2050385 68.957196,28.756362 71.2517944,26.4275159 C73.5463928,24.0986698 76.0464401,22.9342641 78.7520114,22.9342641 C82.6220057,22.9342641 85.6871323,23.9959281 87.9474829,26.1192878 C90.2078336,28.2426475 91.337992,31.1022907 91.337992,34.6983031 Z M89.8995942,34.8524172 C89.8995942,31.9756072 88.9149865,29.5183689 86.9457416,27.4806286 C84.9764967,25.4428882 82.5877529,24.4240333 79.7794384,24.4240333 C76.9711239,24.4240333 74.5738183,25.4000792 72.5874495,27.3522002 C70.6010807,29.3043212 69.6079112,31.7016269 69.6079112,34.5441891 C69.6079112,37.3867513 70.5668335,39.8354278 72.4847068,41.8902921 C74.4025801,43.9451563 76.7485149,44.972573 79.5225816,44.972573 C82.3651439,44.972573 84.8052586,43.9879653 86.8429989,42.0187204 C88.8807393,40.0494755 89.8995942,37.6607317 89.8995942,34.8524172 Z M110.975858,38.0374409 C110.975858,40.2635438 110.153924,42.2156355 108.510033,43.8937747 C106.866142,45.5719138 104.91405,46.4109708 102.653699,46.4109708 C100.324853,46.4109708 98.3213905,45.6404083 96.6432514,44.0992601 C94.9651122,42.5581119 94.1260553,40.6402674 94.1260553,38.3456689 L94.1260553,23.2424922 L95.6158244,23.2424922 L95.6158244,38.3456689 C95.6158244,40.1265513 96.2836452,41.6505528 97.619307,42.917719 C98.9549688,44.1848853 100.598836,44.818459 102.550957,44.818459 C104.674316,44.818459 106.378116,44.1763235 107.662406,42.8920334 C108.946696,41.6077432 109.588831,40.0238091 109.588831,38.1401835 L109.588831,23.2424922 L110.975858,23.2424922 L110.975858,38.0374409 Z M126.078651,24.6295187 L125.975908,26.2220305 C124.708742,25.5713235 123.672764,25.0918624 122.867942,24.7836327 C122.06312,24.4754031 121.112759,24.3212906 120.016832,24.3212906 C118.646922,24.3212906 117.551011,24.8007517 116.729066,25.7596884 C115.90712,26.718625 115.496153,27.865907 115.496153,29.2015688 C115.496153,30.9139556 117.251323,32.4208335 120.761716,33.7222475 C124.27211,35.0236615 126.02728,37.078495 126.02728,39.8868094 C126.02728,42.0444169 125.350897,43.6968454 123.998111,44.8441446 C122.645326,45.9914438 121.010021,46.5650848 119.092148,46.5650848 C117.037283,46.5650848 115.205057,45.9143876 113.595413,44.6129736 L113.698156,42.8663477 C114.794084,43.7567889 115.667388,44.3732389 116.318095,44.7157163 C116.968802,45.0581936 117.944848,45.2294298 119.246262,45.2294298 C120.753162,45.2294298 122.028871,44.8184631 123.073427,43.9965174 C124.117983,43.1745717 124.640253,41.8903008 124.640253,40.1436662 C124.640253,37.7463246 122.867959,35.9312217 119.323319,34.6983031 C115.778678,33.4653846 114.006384,31.6502817 114.006384,29.2529401 C114.006384,27.6090487 114.562901,26.1449799 115.675953,24.8606897 C116.789004,23.5763996 118.201702,22.9342641 119.914089,22.9342641 C120.975769,22.9342641 121.994624,23.0798148 122.970684,23.3709206 C123.946745,23.6620264 124.982724,24.0815549 126.078651,24.6295187 Z M142.914269,46.1027427 L141.373129,46.154114 C137.468886,46.154114 134.292456,45.0838883 131.843743,42.9434047 C129.39503,40.8029211 128.170692,37.9518397 128.170692,34.390075 C128.170692,31.2392832 129.292288,28.5936852 131.535515,26.4532016 C133.778742,24.312718 136.766812,23.2424922 140.499816,23.2424922 L142.914269,23.2424922 L142.914269,24.8350041 L141.270386,24.7322614 C137.845612,24.7322614 135.071587,25.6055656 132.948227,27.3522002 C130.824868,29.0988348 129.763204,31.4618932 129.763204,34.4414464 C129.763204,37.2840086 130.807744,39.6984379 132.896856,41.6848067 C134.985968,43.6711754 137.657251,44.6643449 140.910786,44.6643449 L142.914269,44.6643449 L142.914269,46.1027427 Z M162.848269,38.0374409 C162.848269,40.2635438 162.026336,42.2156355 160.382445,43.8937747 C158.738553,45.5719138 156.786461,46.4109708 154.526111,46.4109708 C152.197265,46.4109708 150.193802,45.6404083 148.515663,44.0992601 C146.837524,42.5581119 145.998467,40.6402674 145.998467,38.3456689 L145.998467,23.2424922 L147.488236,23.2424922 L147.488236,38.3456689 C147.488236,40.1265513 148.156057,41.6505528 149.491719,42.917719 C150.82738,44.1848853 152.471247,44.818459 154.423368,44.818459 C156.546728,44.818459 158.250527,44.1763235 159.534817,42.8920334 C160.819108,41.6077432 161.461243,40.0238091 161.461243,38.1401835 L161.461243,23.2424922 L162.848269,23.2424922 L162.848269,38.0374409 Z M194.550525,33.6708762 C194.550525,34.0476013 194.533402,34.3301409 194.499154,34.5185034 C194.464906,34.706866 194.345041,34.9209111 194.139554,35.1606453 L172.563588,35.1606453 C172.563588,37.9689598 173.61669,40.3148946 175.722926,42.1985201 C177.829162,44.0821457 180.269276,45.0239444 183.043343,45.0239444 C185.269446,45.0239444 187.28147,44.2961909 189.079477,42.840662 C190.877483,41.3851332 192.084697,39.4587268 192.701157,37.0613852 L194.396411,37.0613852 C193.848447,39.8696997 192.495682,42.1300165 190.338075,43.8424033 C188.180467,45.5547902 185.714667,46.4109708 182.9406,46.4109708 C179.276092,46.4109708 176.356517,45.1951944 174.181785,42.763605 C172.007054,40.3320156 170.919705,37.626485 170.919705,34.6469318 C170.919705,31.0509194 172.195414,28.1827144 174.74687,26.0422308 C177.298327,23.9017472 179.858307,22.8315214 182.426887,22.8315214 C185.71467,22.8315214 188.557189,23.9616798 190.954531,26.2220305 C193.351872,28.4823812 194.550525,30.9653049 194.550525,33.6708762 Z M193.009385,33.7736189 C193.009385,31.2050385 191.973406,29.0132162 189.901418,27.1980861 C187.82943,25.3829561 185.45781,24.4754046 182.786486,24.4754046 C179.909676,24.4754046 177.55518,25.3315852 175.722926,27.0439721 C173.890672,28.756359 172.83757,30.9995521 172.563588,33.7736189 L193.009385,33.7736189 Z" id="opuscu-e" stroke="#000000" stroke-width="0.5"></path>
                <polygon id="l" stroke="#000000" stroke-width="0.2" points="167.943923 59 166.309816 59 166.309816 23.0496397 167.943923 23.0496397"></polygon>
            </g>
            <path d="M195.93561,1.69984879 C195.602947,2.04007227 195.436618,2.44360906 195.436618,2.91047127 C195.436618,3.39434466 195.605782,3.80544186 195.944115,4.1437752 C196.280559,4.48210855 196.686931,4.65127268 197.163243,4.65127268 C197.637666,4.65127268 198.043093,4.4811635 198.379536,4.14094002 C198.71598,3.79882641 198.884199,3.38867427 198.884199,2.91047127 C198.884199,2.44549919 198.716925,2.0419624 198.382371,1.69984879 C198.044038,1.35206479 197.637666,1.1781754 197.163243,1.1781754 C196.68315,1.1781754 196.273943,1.35206479 195.93561,1.69984879 Z M198.626197,4.41028226 C198.219819,4.80342939 197.732173,5 197.163243,5 C196.575413,5 196.080206,4.79870413 195.677608,4.39610635 C195.275011,3.99350857 195.073715,3.49830183 195.073715,2.91047127 C195.073715,2.29995915 195.291076,1.79246674 195.725806,1.38797883 C196.134075,1.00995275 196.613215,0.82094254 197.163243,0.82094254 C197.739733,0.82094254 198.232105,1.02507356 198.640373,1.43334173 C199.048641,1.8416099 199.252772,2.33398149 199.252772,2.91047127 C199.252772,3.50397222 199.043916,4.00390422 198.626197,4.41028226 Z M197.353201,2.21301663 C197.270035,2.18088442 197.152849,2.16481855 197.001638,2.16481855 L196.854209,2.16481855 L196.854209,2.83675655 L197.089529,2.83675655 C197.231289,2.83675655 197.341859,2.80840502 197.421245,2.75170111 C197.50063,2.6949972 197.540323,2.60332725 197.540323,2.47668851 C197.540323,2.35004977 197.477949,2.26216002 197.353201,2.21301663 Z M196.24748,4.07289567 L196.24748,1.75655242 C196.39113,1.75655242 196.606129,1.75702494 196.892484,1.75797001 C197.178838,1.75891508 197.338079,1.76033265 197.370212,1.76222278 C197.553554,1.7754537 197.705708,1.81514584 197.826676,1.8813004 C198.0327,1.99470823 198.135711,2.17899318 198.135711,2.43416079 C198.135711,2.62884422 198.08137,2.76965682 197.972688,2.85660282 C197.864005,2.94354882 197.730281,2.99552663 197.57151,3.0125378 C197.71705,3.04277989 197.826676,3.08719729 197.900391,3.14579133 C198.03648,3.25541889 198.104524,3.42836323 198.104524,3.66462954 L198.104524,3.87159778 C198.104524,3.89427935 198.105941,3.91696057 198.108776,3.93964214 C198.111612,3.9623237 198.116809,3.98500493 198.12437,4.00768649 L198.144216,4.07289567 L197.565839,4.07289567 C197.546938,3.99918058 197.534652,3.89238981 197.528982,3.75252016 C197.523311,3.61265051 197.511026,3.51814541 197.492124,3.46900202 C197.461882,3.38772641 197.405179,3.33102335 197.322014,3.29889113 C197.27665,3.27998982 197.207662,3.26770416 197.115045,3.26203377 L196.981792,3.25352823 L196.854209,3.25352823 L196.854209,4.07289567 L196.24748,4.07289567 Z" id="®" fill="#222222"></path>
        </g>
    </g>
</svg>