<?xml version="1.0" encoding="UTF-8"?>
<svg width="200px" height="39px" viewBox="0 0 200 39" version="1.1" xmlns="http://www.w3.org/2000/svg" xmlns:xlink="http://www.w3.org/1999/xlink">
    <!-- Generator: Sketch 46.2 (44496) - http://www.bohemiancoding.com/sketch -->
    <title>Artboard 6 Copy</title>
    <desc>Created with Sketch.</desc>
    <defs></defs>
    <g id="Page-1" stroke="none" stroke-width="1" fill="none" fill-rule="evenodd">
        <g id="Artboard-6-Copy">
            <g id="Group-4" transform="translate(0.645161, -21.290323)" fill="#000000">
                <g id="Group-2" transform="translate(0.000000, 22.062818)">
                    <g id="Group">
                        <path d="M29.5486201,11.6983693 C28.9842357,12.5090433 28.4652253,13.0036315 27.6534164,13.0036315 C25.5910738,13.0036315 24.8438163,11.1305603 25.3138207,9.667017 C25.743914,8.32775278 27.3190956,7.44353545 29.1415502,8.62866608 C30.5736257,8.02840126 32.0751273,7.34677395 33.4614936,6.73006352 C32.0238123,3.15444138 29.834949,-0.505572717 24.6693867,0.235345355 C16.3205721,1.43371109 13.6172655,12.3107519 19.0359528,17.9039909 C24.0919856,23.1233086 33.3799934,19.3429819 33.821992,11.634318 C32.3204904,11.634318 30.9147192,11.7070249 29.5486201,11.6983693 Z" id="Fill-3"></path>
                        <path d="M29.0369159,9.27835429 C28.4022553,9.5323957 26.9915153,9.97599443 27.1303473,10.6117471 C27.3351461,11.5521765 30.7067802,11.1695996 31.5673661,11.1328134 C33.3756312,11.0562114 34.5367323,11.0189924 36.0703515,10.9739834 L36.0703515,6.16630555" id="Fill-5"></path>
                        <path d="M31.5926373,18.9311492 C29.5831607,20.1412 27.4158583,21.670209 23.8475281,21.3274479 C20.036422,20.9608838 16.1852127,19.5331451 12.2417227,18.6169514 C12.2417227,22.4639262 12.228355,26.5493623 12.228355,30.3976353 C18.6992146,32.501808 25.0066425,34.7708696 31.5943622,36.7577592 C31.6422274,31.2454499 31.7056164,24.089445 31.5926373,18.9311492" id="Fill-7"></path>
                        <path d="M18.6923151,19.1090647 C18.6923151,19.1090647 14.1929849,15.6918398 14.9588283,8.72279557 C15.1416648,7.05140211 16.5815022,2.29299429 20.9148134,0.0620172662 L5.01580017,0.730661203 C5.01580017,0.730661203 0.633761317,2.85214507 0.218498237,7.40887777 C0.218498237,7.40887777 -0.75734844,12.8657913 5.01580017,15.2279004 L18.6923151,19.1090647 Z" id="Fill-9"></path>
                    </g>
                </g>
                <text id="opuscu-e" stroke="#000000" stroke-width="0.5" font-family="Hammer-Thin, Hammer Thin" font-size="51.3713493" font-style="condensed" font-weight="normal" letter-spacing="-1.27027335">
                    <tspan x="40.055375" y="46">op</tspan>
                    <tspan x="91.7116018" y="46" letter-spacing="-1.07918178">u</tspan>
                    <tspan x="112.413872" y="46" letter-spacing="-0.887497625">s</tspan>
                    <tspan x="126.783665" y="46" letter-spacing="-0.25493991">c</tspan>
                    <tspan x="143.584013" y="46" letter-spacing="-7.59644293">u</tspan>
                    <tspan x="157.769023" y="46" letter-spacing="-1.07918178"> </tspan>
                    <tspan x="169.532678" y="46">e</tspan>
                </text>
                <text id="l" stroke="#000000" stroke-width="0.5" font-family="Hammer-Thin, Hammer Thin" font-size="52.7131383" font-style="condensed" font-weight="normal" letter-spacing="-1.30345221">
                    <tspan x="163.094315" y="58.7028862">l</tspan>
                </text>
            </g>
            <text id="®" font-family="Helvetica-Bold, Helvetica" font-size="5.80645161" font-weight="bold" letter-spacing="0.264919362" fill="#222222">
                <tspan x="194.83871" y="3.70967742">®</tspan>
            </text>
        </g>
    </g>
</svg>